<svg xmlns="http://www.w3.org/2000/svg" viewBox="0 0 184.60692 106.38411"><defs><style>.cls-1{fill:none;stroke:#252525;stroke-miterlimit:10;stroke-width:5px;}</style></defs><g id="Layer_2" data-name="Layer 2"><g id="Layer_32" data-name="Layer 32"><path class="cls-1" d="M139.64138,35.35618c-3.03686-1.92334-3.825-3.07812-1.71753-6.35351,4.22779-6.57178,7.95923-13.46509,11.822-20.26758,1.01465-1.78687,2.95606-3.98633.292-5.6377-2.74854-1.70312-4.09375.61182-5.31665,2.76123-4.03345,7.08789-8.25977,14.06885-12.16065,21.228-1.49731,2.74805-2.83227,3.20313-5.81982,1.98828-23.27222-9.46435-46.64746-9.38867-69.887.10938-2.92016,1.19336-4.074.5039-5.42919-1.94092C47.39114,19.9658,43.16018,12.79759,39.0281,5.574c-1.137-1.98731-2.48218-4.0503-5.023-2.57081-2.731,1.59009-1.0022,3.73731.04639,5.5647,3.97632,6.929,7.90454,13.88794,12.04492,20.71826,1.54541,2.54956,1.77368,3.83814-1.25244,5.71582C21.097,49.73631,7.24709,71.08152,2.72341,98.65745c-.69775,4.25318.09449,5.238,4.44922,5.22656q84.68885-.22485,169.37793-.09936h5.24487C178.295,74.04149,164.61355,51.16966,139.64138,35.35618ZM50.33865,78.22825a7.75253,7.75253,0,0,1-7.49292-7.68384,7.96989,7.96989,0,0,1,7.74463-7.52319,7.799,7.799,0,0,1,7.42773,7.78394A7.5116,7.5116,0,0,1,50.33865,78.22825Zm83.09961.02295a7.51272,7.51272,0,0,1-7.53443-7.57666,7.66307,7.66307,0,0,1,7.533-7.64917,8.02391,8.02391,0,0,1,7.645,7.65064A7.85666,7.85666,0,0,1,133.43826,78.2512Z"/></g></g></svg>