<svg xmlns="http://www.w3.org/2000/svg" viewBox="0 0 46.30971 41.19353"><defs><style>.cls-1{fill:#252525;}</style></defs><g id="Layer_2" data-name="Layer 2"><g id="Layer_32" data-name="Layer 32"><path class="cls-1" d="M45.7766,35.8651C44.814,34.114,44.03087,32.265,43.13977,30.47356a4.18044,4.18044,0,0,1-.39877-3.21713,13.81189,13.81189,0,0,1,1.19338-2.51079,7.57663,7.57663,0,0,0-2.15486-10.2734,7.76808,7.76808,0,0,0-10.271.8003q-2.55553,2.6031-5.05548,5.26056a1.119,1.119,0,0,1-1.31731.38235,6.30532,6.30532,0,0,0-3.7976-.06532,1.15024,1.15024,0,0,1-1.29884-.40071c-1.85585-1.83722-3.68058-3.70935-5.60167-5.47636A7.20484,7.20484,0,0,0,6.17878,13.562a7.63349,7.63349,0,0,0-4.93445,7.04438c-.10417,2.073.84215,3.72464,1.83519,5.38357a4.41664,4.41664,0,0,1,.11984,4.58369c-.9136,1.781-1.77129,3.59061-2.65875,5.38508-1.41575,2.86266.04446,5.18135,3.26761,5.18158q9.71652.00072,19.43305.00014c6.40611,0,12.81509-.11217,19.217.05161C45.27338,41.26407,47.32758,38.68659,45.7766,35.8651ZM7.02015,39.93918a11.70911,11.70911,0,0,0-1.60737-.013c-.60791,0-1.21592.00707-1.82372-.0013C1.59471,39.89741.7638,38.58407,1.6146,36.75534c.87332-1.87716,1.74216-3.75883,2.69574-5.59558a5.58684,5.58684,0,0,0-.13353-5.80361,10.539,10.539,0,0,1-1.5106-3.28936,6.45743,6.45743,0,0,1,3.04741-6.87555c2.69181-1.60076,5.59077-1.47167,7.74922.50395,1.871,1.7125,3.6133,3.565,5.43123,5.33633.4.38975.3599.58265-.11273.86315A8.69161,8.69161,0,0,0,15.465,25.72025c-2.14879,4.357-4.37536,8.67587-6.50252,13.04324A1.677,1.677,0,0,1,7.02015,39.93918Zm28.29507-.013q-12.17365,0-24.34731-.00021c-1.173-.00006-1.16933.00047-.65109-1.03667q3.2294-6.4629,6.4553-12.92753a6.99541,6.99541,0,0,1,12.052-1.19658,32.37014,32.37014,0,0,1,2.118,3.96519c1.75089,3.43524,3.479,6.8821,5.21351,10.32569.1097.21775.1959.44735.37912.87011Zm7.55045-.00164c-.64351.00889-1.28726.00141-1.9309.00141-2.34382.647-3.39032-.55943-4.29708-2.58049-1.79613-4.00344-3.86991-7.88214-5.82-11.8168a8.14265,8.14265,0,0,0-3.14-3.56673c-.60089-.352-.53356-.60259-.09466-1.03263,1.63435-1.60135,3.20877-3.265,4.86888-4.8386a6.6851,6.6851,0,0,1,11.30436,5.79989,10.556,10.556,0,0,1-1.66192,3.6822,5.371,5.371,0,0,0-.18087,5.22818c.67626,1.378,1.32929,2.76739,1.99457,4.15079.29407.61149.6014,1.21673.88794,1.83168C45.59893,38.50679,44.74294,39.89864,42.86567,39.92457Z"/><path class="cls-1" d="M16.79837,11.68173a6.32568,6.32568,0,1,0,12.65026-.15339,6.27021,6.27021,0,0,0-6.27715-6.38241A6.34461,6.34461,0,0,0,16.79837,11.68173Zm11.49592-.18515a5.20464,5.20464,0,0,1-5.01112,5.22551A5.302,5.302,0,0,1,18.04176,11.578a5.30852,5.30852,0,0,1,5.11-5.17835A5.17969,5.17969,0,0,1,28.29429,11.49658Z"/><path class="cls-1" d="M14.49614,7.1801c.475-.28755.21806-.71645-.00054-1.02743a1.80691,1.80691,0,0,1,.37565-2.50038A5.286,5.286,0,0,1,16.075,2.77016c2.37508-1.40076,5.03277-1.43208,7.6702-1.54215.35645.02557.71348.04463,1.0692.0778a12.15011,12.15011,0,0,1,6.07379,1.84378c1.33894.93793,1.56309,1.70713.92126,3.1363-.15588.34711-.28166.71143.14036.92688.37467.19127.65876-.00762.9034-.33527a3.06465,3.06465,0,0,0,.04813-3.339A4.96435,4.96435,0,0,0,30.73141,1.6858,17.46649,17.46649,0,0,0,19.87445.29313a11.59,11.59,0,0,0-5.59982,2.25022,3.07792,3.07792,0,0,0-.8233,4.19231C13.71148,7.11011,14.01524,7.47122,14.49614,7.1801Z"/></g></g></svg>