<svg xmlns="http://www.w3.org/2000/svg" viewBox="0 0 120.96107 147.36813"><defs><style>.cls-1{fill:none;stroke:#252525;stroke-miterlimit:10;stroke-width:5px;}</style></defs><g id="Layer_2" data-name="Layer 2"><g id="Layer_32" data-name="Layer 32"><path class="cls-1" d="M114.80494,104.90976c-18.82837-12.30029-19.53125-37.18237-1.61475-50.281,3.02686-2.2129,2.02051-3.31519.22461-5.07569-11.44433-11.218-24.90527-13.63513-39.45044-7.80444-8.25,3.30713-15.47387,3.22876-23.84082.02209C30.93311,34.41611,11.32935,44.68051,5.03638,64.38A54.65091,54.65091,0,0,0,2.5,79.12656c.01172,21.56054,10.17871,45.51782,23.94262,59.06787,6.9087,6.80176,14.61646,8.65137,23.605,4.40259,8.915-4.21411,17.915-4.18457,26.98462-.27051,10.58594,4.56836,18.08008,2.835,25.85718-5.73193,6.10425-6.72437,10.54492-14.46705,14.36987-22.65992C119.11671,109.95615,119.19141,107.77548,114.80494,104.90976Z"/><path class="cls-1" d="M67.2859,34.999C79.085,32.42453,90.03345,18.70676,90.32032,6.13828c.09058-3.96778.0144-4.03467-3.679-3.2334-13.16113,2.85534-23.5,14.074-25.02807,27.15722C60.98853,35.41171,61.87183,36.18027,67.2859,34.999Z"/></g></g></svg>