<svg xmlns="http://www.w3.org/2000/svg" viewBox="0 0 28.36875 35.61698"><defs><style>.cls-1{fill:#252525;}</style></defs><g id="Layer_2" data-name="Layer 2"><g id="Layer_32" data-name="Layer 32"><path class="cls-1" d="M14.74777,2.05475V3.6384q0,15.26511,0,30.53023c0,.2482.0019.49644-.00143.7446-.00547.40725-.17435.71528-.61264.70342-.421-.01138-.61-.313-.625-.71667-.01052-.28331-.00555-.56723-.00555-.85088Q13.5028,18.784,13.50293,3.51887V2.36656c-.47061-.0827-.60179.27855-.80277.47941Q7.20786,8.335,1.73424,13.84265c-.20019.201-.39971.4027-.60322.60027-.28046.27226-.60267.43148-.93385.12193-.33452-.31267-.19932-.64015.07841-.92412.44619-.45622.897-.908,1.34726-1.36015Q7.365,6.5147,13.10764.74939C14.09971-.24666,14.25319-.25,15.239.74073q6.18941,6.22035,12.37537,12.44415c.19982.201.401.40192.58519.61685a.50808.50808,0,0,1-.002.75858.54225.54225,0,0,1-.77054.04875,8.03576,8.03576,0,0,1-.77521-.72615Q21.19695,8.43121,15.74363,2.978C15.50028,2.73482,15.23934,2.50929,14.74777,2.05475Z"/></g></g></svg>