<svg xmlns="http://www.w3.org/2000/svg" viewBox="0 0 72.60535 69.81267"><defs><style>.cls-1{fill:#252525;}</style></defs><g id="Layer_2" data-name="Layer 2"><g id="Layer_10" data-name="Layer 10"><path class="cls-1" d="M7.37585,24.55982c3.24009-.64087,6.56325-1.30189,9.88808-1.95441,1.96567-.38577,3.93184-.76974,5.90227-1.13.66853-.12223,1.41724-.22433,1.60407.69725.18779.92628-.39286,1.34572-1.21172,1.5088C17.592,24.86976,11.62074,26.03523,5.6607,27.25534a1.50884,1.50884,0,0,1-2.035-1.33014C2.4276,19.96268,1.26745,13.99255.09356,8.02518c-.15-.76232-.2453-1.588.74538-1.764,1.064-.189,1.33.66129,1.49639,1.48951Q3.53984,13.7458,4.73907,19.742c.11575.57373.27857,1.138.43218,1.75729.97145-.315.97137-1.1677,1.28509-1.76556C13.43752,6.4297,24.43466-.3971,39.4524.01785c18.76.51836,33.91311,17.17706,33.12342,35.93932A34.85036,34.85036,0,0,1,43.054,69.358a33.45958,33.45958,0,0,1-24.334-5.25527c-.75572-.49833-1.90155-1.00849-1.121-2.13762.76636-1.10856,1.6468-.23107,2.42.25809A32.59484,32.59484,0,1,0,42.70006,2.646,32.37622,32.37622,0,0,0,7.43266,23.15222,1.4027,1.4027,0,0,0,7.37585,24.55982Z"/></g></g></svg>