<svg xmlns="http://www.w3.org/2000/svg" viewBox="0 0 72.5 69.00012"><defs><style>.cls-1{fill:none;stroke:#252525;stroke-linecap:square;stroke-miterlimit:10;}.cls-1,.cls-3{stroke-width:1.5px;}.cls-2{fill:#252525;}.cls-3{fill:#fff;stroke:#000;stroke-linejoin:round;}</style></defs><g id="Layer_2" data-name="Layer 2"><g id="Layer_34" data-name="Layer 34"><line class="cls-1" x1="9.25" y1="68.25012" x2="9.25" y2="67.25012"/><line class="cls-1" x1="64.25" y1="68.25012" x2="64.25" y2="67.25012"/><path class="cls-1" d="M64.25,64.25012V17.92552a2.78458,2.78458,0,0,0-.22-1.0878l-.06-.1176a2.50625,2.50625,0,0,0-2.25-1.47H11.78a2.50625,2.50625,0,0,0-2.25,1.47l-.06.1176a2.78458,2.78458,0,0,0-.22,1.0878v46.3246"/><rect class="cls-1" x="15.25" y="23.25012" width="43.46463" height="39.68845" rx="2.61083"/><g id="Layer_2-2" data-name="Layer 2"><g id="Layer_32" data-name="Layer 32"><path class="cls-2" d="M56.27,28.9801c-.46-.18994-.67993.16-.95.39-1.16016,1-2.39014,1.94006-3.44007,3.03991a3.11231,3.11231,0,0,1-2.67.70008,12.32636,12.32636,0,0,1-2.90991-.1c-.21-.05-.37012-.3-.56006-.46-1.2-1.05005-2.38-2.11011-3.59-3.15015-.28-.24-.54-.65991-1.04-.41992-.43006.21-.2699.63-.2699.96,0,3.32007,0,6.64.02991,9.97.01.44007-.12.56006-.56995.55q-1.60511-.03-3.21,0a14.81869,14.81869,0,0,0-10.55,4.22A17.89927,17.89927,0,0,0,23.96,48.17a1.29819,1.29819,0,0,1-.19995-.99c-.01-1.53991,0-3.08,0-4.61987a7.02775,7.02775,0,0,0-1.87-5.01,7.165,7.165,0,0,0-5.26-2.22009c-.33-.00989-.66.05-.71008.42-.03992.39.29.49.61011.55a5.265,5.265,0,0,0,.56995.03992,6.45824,6.45824,0,0,1,3.46008,1.4801,6.15637,6.15637,0,0,1,2.13989,5.2c-.01,4.56995,0,9.13989,0,13.71a6.42544,6.42544,0,0,0,.18,1.85,6.12456,6.12456,0,0,0,5.4,4.36,7.17328,7.17328,0,0,0,.92993.02c3.34009.02,6.67.03,10.01,0a17.27088,17.27088,0,0,0,2.19995-.02c.62012-.13989.5-.7.42017-2.73A2.68127,2.68127,0,0,0,39,57.71008h-.03a3.20139,3.20139,0,0,1-1.27-.12l7.04-4.2699v6.0199c0,2.80993.3,3.47009,2.6001,3.6.35986.02.7699.02,1.24.02.21,0,.3999-.01.57983-.02,1.77-.11987,2.36011-.84,2.36011-2.75,0-4.29992.01-8.6-.01-12.90991a1.0985,1.0985,0,0,1,.72-1.16,7.21862,7.21862,0,0,0,4.3501-6.68006c.02991-3.16992.01-6.35,0-9.52C56.58008,29.59009,56.75,29.18005,56.27,28.9801ZM50.43994,60.65c-.01,1.01-.38989,1.31006-1.46,1.33008-.56006.01-1.13.01-1.68994,0-1.09009-.02-1.45-.36-1.45-1.41992-.01-2.55005,0-5.1001-.01-7.65015,0-.33984.12988-.75-.26-.98-.46008-.27-.77.13013-1.09009.32007-2.46,1.48-4.90991,2.99-7.37,4.47a1.37741,1.37741,0,0,1-.91.37,6.3364,6.3364,0,0,0-.74-3.41,6.5125,6.5125,0,0,0-5.40991-3.37988c-.44006-.04-1-.16-1.08008.38989-.08.6001.53.56006.95.6001A5.41733,5.41733,0,0,1,34.77,54.71008a6.49657,6.49657,0,0,1,.33,2.9c-.03992.81994.26,1.21008,1.20007,1.15.90991-.05,1.81995-.05,2.74-.01a2.22107,2.22107,0,0,1,1.87988,2.58,1.943,1.943,0,0,1-.13989.45007c-.14.23-.37012.16992-.58008.16992-3.80994,0-7.61987.05005-11.41992-.03a4.86471,4.86471,0,0,1-5.02-4.68994,1.08424,1.08424,0,0,1,.01-.17993,27.24122,27.24122,0,0,1,.31006-5.8501A12.79843,12.79843,0,0,1,34.7,41.82019q2.97-.22522,5.94006-.17017a.60917.60917,0,0,1,.69007.44007,7.92886,7.92886,0,0,0,8.53992,4.78c.5-.06995.59.12.59.52C50.45,51.81018,50.47,56.2301,50.43994,60.65ZM55.48,39.9a6.8259,6.8259,0,0,1-13.56006.03c-.11987-2.96-.02991-5.92993-.0199-8.8999a1.19112,1.19112,0,0,1,.15-.3501c1.1.96009,2.17993,1.84009,3.18994,2.8a2.2849,2.2849,0,0,0,1.92993.7,3.70548,3.70548,0,0,1,.94007,0,5.85788,5.85788,0,0,0,5.75-2.18994,15.25158,15.25158,0,0,1,1.67-1.43994v2.5C55.52,35.34009,55.59009,37.62012,55.48,39.9Z"/><path class="cls-2" d="M52.126,37.43665a.99273.99273,0,0,0-1.10273.84786.895.895,0,0,0,.00157.20536.945.945,0,0,0,.90429.99388,1.041,1.041,0,0,0,.16107-.00087,1.02557,1.02557,0,1,0,.07567-2.0471Z"/><path class="cls-2" d="M45.24719,37.44046a.95782.95782,0,0,0-1.013.89171.87169.87169,0,0,0,.00949.16369.9539.9539,0,0,0,.92.99556,1.0512,1.0512,0,0,0,.16176-.002,1.00042,1.00042,0,0,0,1.07588-.90678.90756.90756,0,0,0-.01117-.20551.9623.9623,0,0,0-.97735-.9476A1.05007,1.05007,0,0,0,45.24719,37.44046Z"/></g></g><path class="cls-3" d="M71.75,16.75012H.75L36.63232.75Z"/></g></g></svg>