<svg xmlns="http://www.w3.org/2000/svg" viewBox="0 0 53.88158 62.87072"><defs><style>.cls-1{fill:none;stroke:#000;stroke-linejoin:round;stroke-width:1.38158px;}</style></defs><g id="Layer_2" data-name="Layer 2"><g id="Layer_32" data-name="Layer 32"><path class="cls-1" d="M.69079.69079V38.68421a25.81176,25.81176,0,0,0,4.83553,13.125C13.45547,62.5659,26.84619,62.2055,27.63158,62.17105a27.25319,27.25319,0,0,0,18.65131-8.98026,27.90339,27.90339,0,0,0,6.9079-15.88816V.69079C52.005,2.00668,42.98008,11.98813,37.99342,15.88816a16.274,16.274,0,0,1-1.59489,1.08619,18.301,18.301,0,0,1-1.85906.98618c-2.17557.07129-4.48275.07951-6.90789,0-2.88247-.09449-5.59459-.30184-8.11691-.58033a18.83123,18.83123,0,0,1-2.52453-1.37344c-.00006,0-.60342-.38916-1.19743-.84329C10.16827,10.86332,2.31863,2.44618.69079.69079Z"/><circle cx="16.57895" cy="34.53947" r="3.10855"/><circle cx="38.68421" cy="34.53947" r="3.10855"/><path d="M26.38485,48.70066h-4.625a4.10554,4.10554,0,0,0,1.60277,2.28223,5.2441,5.2441,0,0,0,3.02221.91289A5.61178,5.61178,0,0,0,30.61593,50.07a4.37852,4.37852,0,0,0,.815-1.36934Z"/></g></g></svg>