<svg xmlns="http://www.w3.org/2000/svg" viewBox="0 0 249 249"><defs><style>.cls-1{fill:none;}</style></defs><g id="Layer_2" data-name="Layer 2"><g id="Layer_35" data-name="Layer 35"><path d="M199.5,42a9.01021,9.01021,0,0,1,9,9V195a9.01021,9.01021,0,0,1-9,9H55.5a9.01017,9.01017,0,0,1-9-9V51a9.01018,9.01018,0,0,1,9-9h144m0-3H55.5a12.03529,12.03529,0,0,0-12,12V195a12.03529,12.03529,0,0,0,12,12h144a12.03529,12.03529,0,0,0,12-12V51a12.03529,12.03529,0,0,0-12-12Z"/><polygon points="128.43 124.5 127.78 124.5 128 124.72 128 124.93 128.11 124.83 128.43 124.5 128.43 124.5"/><line class="cls-1" x1="249" y1="124.5" x2="210.5" y2="124.5"/><line class="cls-1" x1="42.5" y1="124.5" y2="124.5"/><line class="cls-1" x1="128" y1="249" x2="128" y2="206"/><line class="cls-1" x1="128" y1="38" x2="128"/><line class="cls-1" x1="213.66" y1="210.38" x2="206.35" y2="203.07"/><line class="cls-1" x1="45.44" y1="42.16" x2="37.59" y2="34.31"/><line class="cls-1" x1="48.53" y1="204.4" x2="40.07" y2="212.86"/><line class="cls-1" x1="216.14" y1="36.79" x2="208.9" y2="44.03"/></g></g></svg>