<svg xmlns="http://www.w3.org/2000/svg" viewBox="0 0 83.58426 58.46006"><defs><style>.cls-1{fill:#252525;}</style></defs><g id="Layer_2" data-name="Layer 2"><g id="Layer_32" data-name="Layer 32"><path class="cls-1" d="M72.15447,26.01913c-1.5547-.53129-1.79973-1.08983-1.47462-2.61217A11.66568,11.66568,0,0,0,66.38459,11.148,11.79186,11.79186,0,0,0,53.46883,9.53975c-1.60636.718-2.19542.37676-3.16016-.874C44.98905,1.76889,38.008-1.26557,29.35912.48709,19.64376,2.4559,13.561,9.64881,12.66888,19.9304a2.93755,2.93755,0,0,1-1.93935,2.83783C3.81948,25.9253-.69351,33.69279.08765,40.81994,1.27293,51.63527,8.8568,58.4445,19.74522,58.456q11.59061.01223,23.1813.00147,11.67788-.00017,23.35568-.00037c.17424,0,.34849-.00306.52278-.00585,8.537-.13732,15.14756-5.6688,16.53669-13.83727A16.5787,16.5787,0,0,0,72.15447,26.01913ZM81.4197,44.24685c-.95579,6.86207-7.31187,12.16347-14.60884,12.16966q-12.11189.01029-24.22377.00156-11.85044,0-23.70089-.00077A16.45619,16.45619,0,0,1,2.40058,43.37486C.73625,35.123,4.67535,27.38239,12.33781,24.20091a3.18627,3.18627,0,0,0,2.27443-3.37654A18.60036,18.60036,0,0,1,27.91245,2.82024a18.82072,18.82072,0,0,1,21.46211,7.84165c1.35374,2.02393,2.0834,2.23319,3.95371,1.13391a10.59977,10.59977,0,0,1,11.77806.74387,10.81722,10.81722,0,0,1,3.60244,11.11467c-.764,2.79577-.59162,3.11115,2.14162,3.91722A14.87838,14.87838,0,0,1,81.4197,44.24685Z"/></g></g></svg>