<svg xmlns="http://www.w3.org/2000/svg" viewBox="0 0 119.46016 160.01793"><defs><style>.cls-1{fill:#252525;}</style></defs><g id="Layer_2" data-name="Layer 2"><g id="Layer_35" data-name="Layer 35"><path class="cls-1" d="M117.04612,52.7483c-2.46777-14.93915-7.13037-29.08246-16.87744-41.06958C93.81077,3.85956,85.79026-.29211,75.47239.016,66.32933.289,57.17015.182,48.021.04529,36.95213-.12,28.07518,4.31342,20.84666,12.45533A66.20449,66.20449,0,0,0,9.1406,31.50013C1.08909,51.1551-1.2925,71.61939.62913,92.67139c1.59351,17.45368,5.70361,34.12769,15.5874,48.91785,6.436,9.63092,14.75489,16.881,26.741,18.11023,6.25513.64148,12.63013.1131,18.95093.1131v.13342c4.49267,0,8.99316-.17444,13.47558.03516,10.31568.48217,18.30811-3.79786,24.7334-11.5611a67.89652,67.89652,0,0,0,11.75684-21.292C120.30589,102.81269,121.20408,77.92176,117.04612,52.7483Zm-4.17383,2.81787q1.35169,9.36914,1.8628,18.809c.13232,2.41193-.574,3.32147-2.97681,3.23932-3.3147-.11334-6.63574-.02838-10.69116-.02838-3.19238-.36011-8.08594,1.6419-10.8125-.79718-2.54688-2.2782-.946-7.23951-1.52857-10.98169-.51-3.27716-.75854-6.60712-1.47168-9.83673-.56909-2.57666-.12231-3.62616,2.74244-3.56122,6.46728.14667,12.94189.1203,19.41064.008C111.75511,52.37653,112.55613,53.375,112.87229,55.56617Zm-3.64746-15.60578c2.92432,9.38868,2.53809,7.627-5.42236,7.60273-5.92944-.01807-13.26416,2.36615-17.39648-.9505-3.86817-3.10468-4.23926-10.43274-6.47168-15.76716-1.12915-2.69769-.72071-3.53472,2.19873-3.40728,3.31445.14465,6.64013.03338,9.96093.03308C105.2783,27.47089,105.32981,27.45484,109.22483,39.96039Zm-7.88232-17.36608c-8.18164,0-16.229.00683-24.27637-.0066-1.37353-.00232-1.96606-1.06353-2.57348-2.06384A53.53239,53.53239,0,0,0,61.008,5.58246C77.85423,3.67493,93.28807,3.82685,101.34251,22.59431ZM26.18162,146.32654c-12.199-12.64489-17.18115-28.58349-19.9353-45.42315A144.95383,144.95383,0,0,1,4.54856,79.55408c.39063-16.80932,2.7627-33.68585,10.34693-49.46838A57.629,57.629,0,0,1,27.57444,12.313c10.70044-9.86584,23.78418-9.8609,34.38257.14161,8.19458,7.73388,13.36011,17.4096,16.69116,28.00262a129.14065,129.14065,0,0,1,.01221,79.07483c-3.16894,10.10083-8.06079,19.3504-15.60937,26.96411C51.59153,158.05494,37.51927,158.07844,26.18162,146.32654Zm35.0022,8.02954a53.86009,53.86009,0,0,0,13.4956-15.19458c.90625-1.541,2.17676-1.79827,3.76441-1.79071,7.45361.0354,14.90771.01575,22.42407.01575C97.59422,150.9834,81.885,157.68763,61.18382,154.35608Zm49.24487-38.172c-.41235,1.08282-.657,2.22857-1.00268,3.33783-4.061,13.02685-4.06226,13.02642-17.75611,13.025-3.321-.00146-6.64306-.057-9.96216.018-2.23339.05041-3.05566-.471-1.96753-2.84876,1.37818-3.01129,2.52247-6.14081,3.596-9.27807,2.74536-8.02216,2.70728-8.03522,11.42139-8.0351,4.31714.00006,8.64136.15192,12.94922-.04895C110.93626,112.20344,111.45115,113.49982,110.42869,116.184Zm4.3-30.26435q-.5669,9.19941-1.81641,18.31391c-.334,2.42712-1.22461,3.50555-3.78149,3.37243-3.30933-.17224-6.63452-.042-10.61524-.042-3.2915-.31012-8.48413,1.69409-10.86157-.75348-2.13916-2.20257.65479-7.12628.90332-10.89154.05469-.82751.155-1.65191.22876-2.47827.98218-11.01117.98169-11.01141,12.29737-11.01105,3.48437.00013,6.97363.11579,10.45141-.03424C114.21287,82.27991,114.88938,83.309,114.72874,85.91968Z"/><path class="cls-1" d="M71.99485,80.21931c-.21411-11.87592-1.38452-23.266-4.98095-34.29072-2.66382-8.16619-6.354-15.75445-12.98365-21.5177-6.70117-5.82543-14.50146-5.80419-21.22046.01905a33.93146,33.93146,0,0,0-9.39941,12.75628Q5.9619,79.855,23.30686,122.63648a34.22532,34.22532,0,0,0,9.33643,12.8053c6.86694,6.03442,14.73071,6.02716,21.59326-.01734a41.00378,41.00378,0,0,0,10.416-15.05865C70.17918,107.42841,71.71946,93.765,71.99485,80.21931ZM55.23875,127.4607c-7.502,10.25653-16.24585,10.19763-23.74805-.17114a45.9219,45.9219,0,0,1-6.73364-13.28742A111.27247,111.27247,0,0,1,24.85984,45.82a48.51813,48.51813,0,0,1,4.33521-9.497c8.86035-15.32733,19.67627-15.22418,28.62475.17041a65.10648,65.10648,0,0,1,6.89136,18.629,128.04578,128.04578,0,0,1,2.657,24.74909c-.28686,11.84619-1.41967,23.55584-5.47631,34.81176A50.32516,50.32516,0,0,1,55.23875,127.4607Z"/></g></g></svg>