<svg xmlns="http://www.w3.org/2000/svg" viewBox="0 0 199.47203 159.77835"><defs><style>.cls-1{fill:#252525;}</style></defs><g id="Layer_2" data-name="Layer 2"><g id="Layer_35" data-name="Layer 35"><path class="cls-1" d="M99.84387,49.87868c-16.168-.054-29.80469,13.59632-29.86182,29.89124-.05664,16.27093,13.51685,30.01269,29.69238,30.06048,16.16358.04779,29.82691-13.62078,29.87989-29.89093C129.607,63.68184,116.01818,49.9327,99.84387,49.87868Zm.01855,54.95264a24.97759,24.97759,0,1,1,25.07325-25.08325A25.13984,25.13984,0,0,1,99.86242,104.83132Z"/><path class="cls-1" d="M144.97692,59.92446c9.80884-.15057,19.62134-.03931,29.43238-.06207,2.105-.00489,4.96631.42932,4.85376-2.66932-.09546-2.6325-2.75415-2.31567-4.73853-2.31671-8.44409-.00433-16.88843-.00183-25.63379-.00183,15.81421-16.037,31.21143-31.65063,46.60718-47.26562,1.05029-1.06519,2.148-2.09107,3.11817-3.22534.949-1.10956,1.24877-2.3974.14233-3.59223-1.168-1.26129-2.39551-.85364-3.49829.13672-.98853.88782-1.92188,1.83826-2.85962,2.78088q-21.813,21.92478-43.6438,43.83094c-1.09692,1.09747-1.86938,2.73767-4.21216,3.02154,0-8.71673.0083-17.287-.00635-25.8573-.00341-1.97162.29737-4.59808-2.53369-4.43957-2.33545.1308-2.0625,2.60516-2.06494,4.41046-.01343,10.14209.1001,20.286-.06128,30.42554C139.818,58.89443,141.42736,59.979,144.97692,59.92446Z"/><path class="cls-1" d="M3.65734,7.24935Q25.79626,29.27007,47.91076,51.31478c.95435.95428,2.60034,1.54352,2.50244,3.56006-8.55908,0-17.03979-.0025-25.5205.00177-2,.001-4.58472-.257-4.63257,2.45184-.04859,2.73889,2.52612,2.54071,4.53467,2.54163,9.99316.00457,19.988-.10614,29.97851.05792,3.75366.06164,4.94165-1.43433,4.884-5.04627-.15869-9.98907-.042-19.9823-.06591-29.97387-.0044-1.93482.44653-4.6637-2.34082-4.62036-2.75928.04284-2.23218,2.79821-2.2417,4.70166-.04175,8.45044-.01807,16.90118-.01807,25.35174q-.80713.52781-1.61475,1.05554a30.96251,30.96251,0,0,0-2.90673-4.04119Q28.8607,25.51177,7.15979,3.75948c-.939-.94409-1.86426-1.90686-2.86011-2.78863C3.21765.01266,1.9779-.52537.795.75277a2.57747,2.57747,0,0,0,.08643,3.6286A36.859,36.859,0,0,0,3.65734,7.24935Z"/><path class="cls-1" d="M54.66174,99.78365c-9.82422.15619-19.65234.0343-29.47876.06879-2.0813.00732-4.97388-.5199-4.89014,2.63519.07178,2.70557,2.741,2.33789,4.71143,2.34113,8.45727.014,16.91479.006,25.50781.006-16.1228,16.38037-31.8938,32.38354-47.62915,48.42163C1.34875,154.82-1.48963,156.54348.95642,158.95046c2.29956,2.2627,3.80664-.68353,5.19238-2.05,6.87744-6.78161,13.63037-13.68915,20.467-20.51214,9.1709-9.15235,18.37866-18.26783,27.62109-27.44953,1.33985,1.60547.70166,3.33454.71924,4.91126.07935,7.15979.02637,14.32092.04248,21.4815.00391,1.82373-.105,4.16712,2.35816,4.10651,2.45483-.06043,2.24341-2.41522,2.24389-4.24835.00293-10.15815-.10766-20.31806.05909-30.47345C59.72082,100.99532,58.30359,99.72573,54.66174,99.78365Z"/><path class="cls-1" d="M198.92956,155.79793a32.7678,32.7678,0,0,0-3.033-3.29382q-21.92066-21.81665-43.86963-43.60474c-1.1123-1.10339-2.37646-2.05365-3.57006-3.07507a241.26841,241.26841,0,0,1,25.99926-1.00006c2.104-.00653,4.96289.41363,4.79737-2.71185-.13916-2.63044-2.80152-2.27051-4.77588-2.272-9.811-.0075-19.625.132-29.43189-.06945-3.96777-.08149-5.24341,1.42523-5.17285,5.26861.17993,9.80634.02905,19.61829.08521,29.42761.01171,2.00873-.67237,5.02558,2.46289,4.92261,2.676-.08783,2.10156-2.90246,2.10937-4.81482.0332-8.41553.01441-16.83124.01441-25.69989,16.31689,16.06879,32.06054,31.57453,47.80737,47.077,1.06567,1.04913,2.10742,2.1308,3.24878,3.09241a2.088,2.088,0,0,0,3.11523-.07264A2.28263,2.28263,0,0,0,198.92956,155.79793Z"/></g></g></svg>