<svg xmlns="http://www.w3.org/2000/svg" viewBox="0 0 120.52359 120.44803"><defs><style>.cls-1{fill:#252525;stroke:#252525;stroke-miterlimit:10;}</style></defs><g id="Layer_2" data-name="Layer 2"><g id="Layer_10" data-name="Layer 10"><path class="cls-1" d="M3.251,119.89246c-2.395-.4553-3.32539-1.97072-2.17764-4.26281a14.21905,14.21905,0,0,1,2.89132-3.38072c16.39957-16.30777,32.7405-32.67606,49.30317-48.81682,2.82579-2.75381,2.38-4.14478-.13513-6.61445C36.74911,40.73022,20.50389,24.50193,4.22235,8.31074a38.90049,38.90049,0,0,1-3.046-3.29269,2.5912,2.5912,0,0,1,.13543-3.63023,2.66631,2.66631,0,0,1,3.64815-.31267A24.40778,24.40778,0,0,1,8.29374,4.05089C24.39112,20.1927,40.57279,36.25274,56.48047,52.57952c3.16312,3.24645,4.75425,2.99009,7.77315-.112C80.15,36.133,96.2934,20.03865,112.35807,3.86792a24.66972,24.66972,0,0,1,2.92325-2.70665,2.88037,2.88037,0,0,1,4.07027.39225,2.75577,2.75577,0,0,1-.0691,3.67945,33.45416,33.45416,0,0,1-2.74364,2.8934C100.25505,24.31462,84.02586,40.55872,67.6196,56.622c-2.74483,2.68746-2.94266,4.15492-.05484,6.97905,16.41684,16.05475,32.60789,32.34031,48.87212,48.551a34.819,34.819,0,0,1,2.75738,2.88173,2.83132,2.83132,0,0,1-.07852,4.04734,2.70519,2.70519,0,0,1-4.03731-.08509c-2.686-2.48266-5.26535-5.08288-7.84558-7.67753-14.43116-14.512-28.92535-28.96283-43.2075-43.62012-2.79591-2.86933-4.34455-3.22239-7.35041-.14069C40.52645,84.11364,24.13252,100.43037,7.81269,116.81909,6.541,118.09612,5.45176,119.67331,3.251,119.89246Z"/></g></g></svg>