<svg xmlns="http://www.w3.org/2000/svg" viewBox="0 0 93.24501 93.2485"><defs><style>.cls-1{fill:#252525;}</style></defs><g id="Layer_2" data-name="Layer 2"><g id="Layer_32" data-name="Layer 32"><path class="cls-1" d="M79.95113.00687Q63.29394.003,46.63676.0063C35.2888.00638,23.94083-.01152,12.5929.01267,5.05238.02874.02742,4.9965.01722,12.46652Q-.01717,37.63223.01741,62.79806C.028,70.45465,4.84018,75.26919,12.45958,75.30971c4.53907.02411,9.07844-.013,13.6175.00963,3.68182.01835,3.28565-.43,3.30362,3.18288.01853,3.72818-.01539,7.45667.01516,11.1847.00955,1.16464-.38382,2.48716.99519,3.25949,1.502.84117,2.45752-.26323,3.45256-1.01407q9.98947-7.53756,19.92257-15.1495a5.73437,5.73437,0,0,1,3.77154-1.28958c7.61892.05694,15.23847.031,22.8578.02529,8.19272-.00618,12.84654-4.62739,12.84786-12.75635q.004-24.80106.00053-49.60213C93.24346,4.67459,88.52964.00884,79.95113.00687Zm10.56779,62.6057c-.00625,6.75656-3.22359,9.98716-9.97393,10.0115-7.93934.02862-15.87911.03741-23.81815-.02a6.01959,6.01959,0,0,0-3.98849,1.361C46.041,79.16185,39.28025,84.277,32.02555,89.8138c0-5.12038-.093-9.55941.04079-13.99154.06316-2.09151-.3207-2.96695-2.73466-2.875-5.66284.21577-11.33955.09011-17.01046.06312-5.87747-.028-9.54307-3.67576-9.55137-9.57143q-.03594-25.51724.00125-51.0345c.0094-5.92216,3.81059-9.75008,9.7356-9.7577q34.14768-.044,68.29535.00171c6.21015.00906,9.71585,3.6397,9.71941,9.90167Q90.53568,37.58131,90.51892,62.61257Z"/><path class="cls-1" d="M64.50307,20.52341c-7.85576.089-15.71315.03621-23.57.03556-.162,0-.32434.00372-.4859-.00527-.89614-.04977-1.696.161-1.77,1.19409-.08374,1.17056.77988,1.48,1.74955,1.54379.56472.03715,1.13344.016,1.70039.016,5.91284.00015,11.82576-.01167,17.73848.01626.568.0027,1.31074-.36861,1.75183.57188-.52711.5541-1.06354,1.14572-1.62893,1.70823q-13.34711,13.28-26.7013,26.55293c-.7768.77225-1.62157,1.68443-.65929,2.69125.99527,1.0414,1.91574.16627,2.68038-.60163q7.8-7.83279,15.59226-15.67334C55.177,34.28978,59.476,30.029,63.90705,25.6168a4.698,4.698,0,0,1,.3873,2.71586c.02043,5.99324-.0072,11.98667.03188,17.97969.00633.97483-.27892,2.39186,1.2787,2.42131,1.49762.02828,1.417-1.29784,1.41911-2.34.01593-7.775-.01959-15.5503.03048-23.325C67.06643,21.22581,66.44652,20.50139,64.50307,20.52341Z"/></g></g></svg>