<svg xmlns="http://www.w3.org/2000/svg" viewBox="0 0 42.97445 37.59096"><defs><style>.cls-1{fill:#252525;}</style></defs><g id="Layer_2" data-name="Layer 2"><g id="Layer_32" data-name="Layer 32"><path class="cls-1" d="M40.04064,18.79851q-9.23547-.00207-18.47094-.00048-9.40338,0-18.80677.00158C.801,18.80093-.13686,19.81342.02552,21.73975A13.81056,13.81056,0,0,0,7.38681,33.2835a1.51827,1.51827,0,0,1,.83786,1.18813,3.74836,3.74836,0,0,0,3.62419,3.09046q9.62679.06011,19.25416.00291a3.73831,3.73831,0,0,0,3.57742-3.00118,1.79572,1.79572,0,0,1,1.05507-1.396A13.54567,13.54567,0,0,0,42.9313,21.89506C43.11907,19.68109,42.24176,18.799,40.04064,18.79851Zm1.61366,3.25123a12.27573,12.27573,0,0,1-6.65081,10.11517,2.47262,2.47262,0,0,0-1.53318,1.99934,2.38978,2.38978,0,0,1-2.49783,2.10463q-9.46718.01882-18.9344.00049a2.55622,2.55622,0,0,1-2.6409-2.387,2.04874,2.04874,0,0,0-1.20349-1.59994A12.463,12.463,0,0,1,1.31,22.19166C1.09452,20.42791,1.42,20.0655,3.20717,20.065q9.13109-.00273,18.26219-.00069,9.18711,0,18.37423.00108C41.54152,20.06613,41.816,20.33936,41.6543,22.04974Z"/><path class="cls-1" d="M1.15727,16.61626c.5459-.16022.50671-.56164.37339-.9909-.04414-.14215-.07712-.28782-.11428-.4321a4.64115,4.64115,0,0,1,4.171-5.803A1.01265,1.01265,0,0,0,6.696,8.47459a5.69214,5.69214,0,0,1,8.526-3.68347c.59019.3278.82724.19466,1.102-.32689a5.78517,5.78517,0,0,1,10.10217-.367c.45665.754.74371,1.1601,1.62948.48377a3.57647,3.57647,0,0,1,2.18248-.59378,5.81785,5.81785,0,0,1,6.06772,4.50034c.14282.4868.21251.83627.882.89713,3.33137.30286,5.02435,2.78743,4.26547,6.15293-.10063.44626-.23283.92724.4,1.084.63143.15644.72783-.33489.8587-.7699A6.01637,6.01637,0,0,0,38.46747,8.26a1.76215,1.76215,0,0,1-1.324-1.14418A6.96751,6.96751,0,0,0,28.313,3.08815a1.015,1.015,0,0,1-1.30607-.3788,6.96868,6.96868,0,0,0-11.04411.01706,1.01825,1.01825,0,0,1-1.31221.35617A6.97131,6.97131,0,0,0,5.87166,7.035a2.00569,2.00569,0,0,1-1.4858,1.261A6.01709,6.01709,0,0,0,.315,15.98763C.46352,16.42193.61262,16.77609,1.15727,16.61626Z"/></g></g></svg>