<svg xmlns="http://www.w3.org/2000/svg" viewBox="0 0 143.19583 92.89198"><defs><style>.cls-1,.cls-2{fill:#252525;}.cls-2{stroke:#252525;stroke-miterlimit:10;}</style></defs><g id="Layer_2" data-name="Layer 2"><g id="Layer_32" data-name="Layer 32"><path class="cls-1" d="M74.85874,82.277c-19.9773.12256-39.95557.089-59.93335.054C8.04685,82.31886,3.4299,77.8141,3.39841,70.99818c-.0675-14.605-.02454-29.21045-.02087-43.81555,0-.45459.06543-.90906.13769-1.84949,1.18347.85706,2.05762,1.433,2.86914,2.08643q19.03217,15.32409,38.041,30.67712c9.35254,7.59461,15.68432,7.7013,24.99829.47815,2.06311-1.6001,2.887-3.38721,2.406-6.38892-2.557,2.03516-4.76026,3.85816-7.03589,5.58545-4.62342,3.50953-10.47193,3.71143-14.89807.178C34.838,45.92921,19.8707,33.79579,4.87192,21.70179c-.60083-.48449-1.37451-.81958-1.45862-1.75952C2.68833,11.8368,4.41672,3.422,16.09385,3.47865c25.74218.12463,51.4851.03857,77.22778.03955,2.286,0,4.57458-.05981,6.85742.02637a10.73407,10.73407,0,0,1,10.78442,10.53418c.1128,1.78161.07251,3.57592.03516,5.363-.02478,1.18262-.04407,2.05957,1.63672,2.07239,1.56372.012,1.78955-.61487,1.73413-1.92236-.08423-1.98352.05444-3.97669-.03613-5.95972A14.15409,14.15409,0,0,0,102.63181.45155a30.54772,30.54772,0,0,0-5.0343-.43066q-40.403-.039-80.80591-.01612C5.68381.00758.00266,5.65126.003,16.6454q.00074,26.677.00391,53.35376c.0072,9.76538,6.0542,15.80078,15.80176,15.80273q30.71228.00622,61.42456-.01782c.8241-.001,1.72974.34692,2.57593-.28906C78.912,83.177,77.48337,82.261,74.85874,82.277Z"/><path class="cls-1" d="M110.99338,28.65516C93.273,28.66542,78.60862,43.20887,78.6102,60.77137A32.318,32.318,0,0,0,110.62973,92.892c17.99634-.00427,32.625-14.47595,32.56592-32.21643A32.50726,32.50726,0,0,0,110.99338,28.65516Zm-.21545,60.79248A29.04287,29.04287,0,0,1,81.98069,60.91737,28.98964,28.98964,0,0,1,110.822,32.11573a28.66634,28.66634,0,1,1-.04406,57.33191Z"/><path class="cls-2" d="M111.4458,67.08c1.61628.05062,1.38822-1.27,1.3961-2.22734.032-3.87593.01328-7.75222.01328-11.62841,0-4.01971.00754-8.03944-.00562-12.05915-.00306-.93876.01418-2.12294-1.33977-2.10542-1.35055.01747-1.3101,1.24284-1.31277,2.15268q-.03472,11.84373.00965,23.68751C110.21064,65.77114,110.02127,67.0353,111.4458,67.08Z"/><path class="cls-2" d="M111.48908,75.21664a2.38966,2.38966,0,0,0-2.6379,2.38653,2.45287,2.45287,0,0,0,2.737,2.55652,2.36024,2.36024,0,0,0,2.60732-2.426C114.21963,76.09051,113.23454,75.22027,111.48908,75.21664Z"/></g></g></svg>