<svg xmlns="http://www.w3.org/2000/svg" viewBox="0 0 46.97992 35.27862"><defs><style>.cls-1{fill:#252525;}</style></defs><g id="Layer_2" data-name="Layer 2"><g id="Layer_32" data-name="Layer 32"><path class="cls-1" d="M40.785.04273Q23.51491-.04389,6.24412.0409C2.346.0591.00166,2.60474.001,6.5323q-.002,11.02138,0,22.04278c.00072,4.27838,2.40725,6.70248,6.65031,6.70269q8.39028.00041,16.78054.00006,8.574,0,17.14806-.00077c3.92274-.00206,6.39691-2.4908,6.39831-6.43692q.004-11.20507.00039-22.41016C46.97785,2.58833,44.6411.06207,40.785.04273Zm4.81972,28.76843c-.00822,3.29334-1.78429,5.04331-5.08991,5.04431q-17.02828.00524-34.05656-.00017c-3.28446-.00112-5.06679-1.78345-5.07-5.06862-.00587-6.03847-.00168-12.07695-.00168-18.47217,2.20928,1.76979,4.17256,3.33819,6.13116,4.91241,3.91254,3.14472,7.81486,6.30221,11.73616,9.436a6.38675,6.38675,0,0,0,8.51235-.01366q8.16719-6.54748,16.31272-13.122c.41146-.331.83177-.65095,1.2399-.96973.44818.20389.28718.57031.28749.86162Q45.61584,20.11513,45.60473,28.81116ZM45.58434,8.16175c-.05062.52759-.503.72439-.83606.99366q-7.088,5.72984-14.19481,11.43646c-1.30268,1.04863-2.59161,2.1148-3.90908,3.1445a4.88855,4.88855,0,0,1-6.21564.04866C14.4065,18.97493,8.43813,14.097,2.38809,9.32238.808,8.07539,1.30965,6.51479,1.53312,5.1036c.3753-2.37,2.12667-3.624,4.64932-3.6323,5.79472-.019,11.58955-.006,17.38434-.00607,5.59073-.00005,11.18226.05809,16.772-.018C45.0308,1.38343,45.9174,4.69061,45.58434,8.16175Z"/></g></g></svg>