<svg xmlns="http://www.w3.org/2000/svg" viewBox="0 0 44.36964 32.41179"><defs><style>.cls-1{fill:#fff;}</style></defs><g id="Layer_2" data-name="Layer 2"><g id="Layer_32" data-name="Layer 32"><path class="cls-1" d="M39.06128.00091C33.47156.077,27.88007.01879,22.28931.01885,16.49451.01891,10.69971.00591,4.905.025,2.38233.0332.63093,1.28729.25568,3.65722.03217,5.06841-.46948,6.629,1.1106,7.876c6.05005,4.7746,12.01843,9.65253,18.04071,14.46265A4.88858,4.88858,0,0,0,25.367,22.29c1.31744-1.02966,2.60638-2.09582,3.90906-3.14447Q36.37583,13.43023,43.47083,7.709c.33307-.26929.78546-.46607.83606-.99365C44.64,3.24426,43.75336-.06293,39.06128.00091Z"/><path class="cls-1" d="M44.04145,9.11114c-.40814.31879-.82849.63873-1.23993.96973Q34.64527,16.642,26.48877,23.20281a6.38669,6.38669,0,0,1-8.51232.01368c-3.92133-3.13373-7.82361-6.2912-11.73615-9.43592C4.28168,12.20635,2.31843,10.63793.10914,8.86816c0,6.3952-.00422,12.43365.00164,18.47217.00324,3.28515,1.78559,5.0675,5.07,5.0686q17.02825.00587,34.05658.00018c3.3056-.001,5.08167-1.751,5.08991-5.04431q.02169-8.696.00164-17.392C44.32862,9.68145,44.48963,9.315,44.04145,9.11114Z"/></g></g></svg>