<svg xmlns="http://www.w3.org/2000/svg" viewBox="0 0 47.74279 37.16132"><defs><style>.cls-1{fill:#252525;}</style></defs><g id="Layer_2" data-name="Layer 2"><g id="Layer_32" data-name="Layer 32"><path class="cls-1" d="M47.39869,17.24666A31.56662,31.56662,0,0,0,35.97994,3.77952C29.29056-.50636,22.20816-1.23161,14.9478,2.03708,8.01427,5.15862,3.41539,10.65776.25208,17.4513a3.06983,3.06983,0,0,0,.182,2.75709A32.96036,32.96036,0,0,0,8.27386,30.79845a23.37522,23.37522,0,0,0,16.29765,6.36287,19.0278,19.0278,0,0,0,6.33563-1.197c7.93611-3.0067,13.12617-8.84045,16.62085-16.36821A2.68878,2.68878,0,0,0,47.39869,17.24666Zm-1.19706,2.291c-2.82834,5.84409-6.71917,10.76442-12.54611,13.84244-6.982,3.68817-13.964,3.41024-20.71281-.6354-5.1807-3.10558-8.73815-7.704-11.37385-13.06517a2.0166,2.0166,0,0,1-.10992-1.896C4.58533,11.28137,9.02352,6.05154,15.72462,3.0014a19.4287,19.4287,0,0,1,8.166-1.65023C30.27612,1.36383,35.45338,4.0636,39.84986,8.516a32.27441,32.27441,0,0,1,6.25581,8.90732A2.2906,2.2906,0,0,1,46.20163,19.53767Z"/><path class="cls-1" d="M23.888,9.35509a9.16434,9.16434,0,0,0-9.22892,9.26037A9.1473,9.1473,0,0,0,23.8896,27.885,9.265,9.265,0,0,0,23.888,9.35509ZM23.87384,26.558a7.9566,7.9566,0,1,1-.02739-15.913,7.85466,7.85466,0,0,1,7.99668,7.94829A7.84072,7.84072,0,0,1,23.87384,26.558Z"/></g></g></svg>