<svg xmlns="http://www.w3.org/2000/svg" viewBox="0 0 54.75123 54.74887"><defs><style>.cls-1{fill:#252525;}</style></defs><g id="Layer_2" data-name="Layer 2"><g id="Layer_32" data-name="Layer 32"><path class="cls-1" d="M27.38033,0a27.37445,27.37445,0,1,0,27.3709,27.45456A27.5062,27.5062,0,0,0,27.38033,0Zm-.12269,53.13367a25.73864,25.73864,0,1,1,25.897-25.68119A25.79149,25.79149,0,0,1,27.25764,53.13367Z"/><path class="cls-1" d="M39.9,34.53346c-.59037-.44887-1.06338-.14015-1.43259.39507-.16161.2343-.31726.47472-.49925.69265-3.36353,4.02793-7.45228,6.24552-12.88357,5.28074a13.35712,13.35712,0,0,1-8.6262-5.8022c-.385-.53016-.83351-1.04338-1.52126-.59743-.77621.50332-.28837,1.10536.08757,1.57655,3.12736,3.91954,6.96124,6.57616,12.39018,6.728a14.5608,14.5608,0,0,0,3.86108-.60433,16.90991,16.90991,0,0,0,8.59641-6.292C40.20172,35.47247,40.45309,34.954,39.9,34.53346Z"/><path class="cls-1" d="M21.25284,22.13023A6.64808,6.64808,0,0,1,23.0643,24.1096a.89137.89137,0,0,0,1.31762.40282c.58988-.33626.34167-.81672.082-1.22081a6.94281,6.94281,0,0,0-5.63057-3.549,6.32758,6.32758,0,0,0-5.4225,3.158c-.30244.46813-.95819,1.04836-.19172,1.58554.772.541,1.14919-.12585,1.55223-.69264C16.55888,21.2797,19.13267,20.63287,21.25284,22.13023Z"/><path class="cls-1" d="M35.27707,19.679c-1.01973-.04957-2.96833.90481-4.27806,2.61259-.473.61678-1.52492,1.41851-.6173,2.1507,1.04051.8394,1.38077-.5283,1.84329-1.1193,2.10155-2.68523,5.03571-2.78324,7.24791-.1887.30748.36063.56571.7628.8575,1.13736a.84293.84293,0,0,0,1.25424.20634c.4512-.31465.32516-.71937.07109-1.12379A7.45666,7.45666,0,0,0,35.27707,19.679Z"/></g></g></svg>