<svg xmlns="http://www.w3.org/2000/svg" viewBox="0 0 51.56104 54.75885"><defs><style>.cls-1{fill:#252525;}</style></defs><g id="Layer_2" data-name="Layer 2"><g id="Layer_32" data-name="Layer 32"><path class="cls-1" d="M50.34481,33.99006c-1.121-1.09552-2.32183-2.109-3.47628-3.17087a1.67983,1.67983,0,0,1-.73891-1.15734c-.27151-4.606-.2239-4.73919,3.21627-7.88555.421-.385.85929-.75419,1.25091-1.16732a2.84068,2.84068,0,0,0,.90293-2.25838,2.95347,2.95347,0,0,0-.27756-1.58338c-1.15654-2.017-2.259-4.06894-3.50707-6.028A2.99092,2.99092,0,0,0,44.1318,9.38c-1.63845.48116-3.26459,1.00524-4.88926,1.5317a1.52972,1.52972,0,0,1-1.345-.01312c-4.38758-2.34052-4.39362-2.32942-5.32055-7.2827-.01744-.09324-.01373-.19052-.03239-.28339A3.6637,3.6637,0,0,0,28.70194.03683C26.75251-.01095,24.79988-.014,22.85067.0381a3.37458,3.37458,0,0,0-3.55527,2.868,21.68313,21.68313,0,0,0-.65493,2.91929c-.20817,1.72431-.84934,3.00657-2.6406,3.59633a7.92508,7.92508,0,0,0-2.03674,1.29421,1.51466,1.51466,0,0,1-1.58129.21405c-1.516-.54911-3.04843-1.06812-4.604-1.48926a3.30108,3.30108,0,0,0-4.13465,1.61516Q2.03728,13.66379.58144,16.36328c-.97483,1.80073-.71471,3.1783.809,4.61676,1.106,1.04406,2.26058,2.03641,3.38244,3.06388.689.631.85733,5.86289.21907,6.53816-.16259.172-.35187.31868-.527.479-1.122,1.02733-2.28364,2.01541-3.3545,3.09357A3.18665,3.18665,0,0,0,.45075,38.203q1.58224,2.95,3.3543,5.79692a3.18741,3.18741,0,0,0,3.8325,1.43961,18.20363,18.20363,0,0,0,3.12009-.99086,3.66206,3.66206,0,0,1,4.521.5497,5.75089,5.75089,0,0,0,1.8687,1.01711,1.78053,1.78053,0,0,1,1.14151,1.4756c.30794,1.44031.59871,2.88561.95934,4.313a3.37823,3.37823,0,0,0,3.76359,2.94674q2.78307.0181,5.56635.00019a3.62337,3.62337,0,0,0,3.975-3.27415c.2757-1.39564.57571-2.78648.85133-4.18213a1.36242,1.36242,0,0,1,.71981-1.12469c1.46675-.7634,2.83419-2.12509,4.34326-2.28529,1.5152-.16085,3.15393.84156,4.73839,1.33455.1362.04238.27046.09126.40746.13072,2.00995.57886,3.29871.12437,4.37728-1.64393q1.55835-2.55494,3.00522-5.17736A3.45657,3.45657,0,0,0,50.34481,33.99006ZM49.534,37.65815c-.94338,1.64828-1.83968,3.32343-2.77081,4.97884a2.02211,2.02211,0,0,1-2.73166,1.07924c-1.46989-.53012-2.99859-.89928-4.46163-1.44573a2.34,2.34,0,0,0-2.71732.45011,7.23943,7.23943,0,0,1-2.92308,1.73113,2.87548,2.87548,0,0,0-2.24613,2.82643c-.16334,1.36277-.55289,2.69725-.81153,4.05017a1.94185,1.94185,0,0,1-2.144,1.81536q-2.92416-.042-5.84932.00119a1.94753,1.94753,0,0,1-2.14724-1.81678c-.32606-1.67571-.71634-3.33971-1.00681-5.02122A1.68664,1.68664,0,0,0,18.46213,44.81a10.97886,10.97886,0,0,1-3.7071-2.0804,2.51809,2.51809,0,0,0-2.86225-.44465c-1.46371.54859-2.98215.94943-4.45775,1.46865A1.8394,1.8394,0,0,1,5.0026,42.8857q-1.53024-2.57049-2.98739-5.18415a1.98776,1.98776,0,0,1,.45958-2.69064q1.9815-1.74015,3.96005-3.48367c.473-.41519,1.00223-.8.6969-1.5847a11.88549,11.88549,0,0,1,.02348-5.06862,1.4434,1.4434,0,0,0-.58809-1.48139c-1.26556-1.07872-2.49-2.20559-3.73312-3.31069C1.51315,18.90764,1.38252,18.233,2.23148,16.744c.89373-1.56754,1.80505-3.125,2.70746-4.68765a1.85307,1.85307,0,0,1,2.39236-.97614c1.4899.47862,3.0141.86473,4.47149,1.42584a2.69764,2.69764,0,0,0,3.12767-.45134,10.50182,10.50182,0,0,1,3.69133-2.11058,1.50893,1.50893,0,0,0,1.061-1.31965c.3379-1.67369.71482-3.34012,1.0189-5.01981A2.16488,2.16488,0,0,1,23.135,1.55923c1.80635.03843,3.61454.03216,5.4212.00169a2.09085,2.09085,0,0,1,2.32569,1.98024c.32074,1.72743.741,3.43623,1.07639,5.16122a1.3664,1.3664,0,0,0,.9778,1.2181,12.72254,12.72254,0,0,1,4.04648,2.34865,2.11139,2.11139,0,0,0,2.35173.34993c1.5583-.56457,3.16645-.99,4.74432-1.50263A2.05043,2.05043,0,0,1,46.78928,12.266c.88176,1.62859,1.75988,3.26166,2.71631,4.8465a1.90549,1.90549,0,0,1-.47152,2.7531c-1.32973,1.15007-2.62035,2.34547-3.95488,3.48977a1.41084,1.41084,0,0,0-.5516,1.475,13.82506,13.82506,0,0,1,.009,5.09986,1.611,1.611,0,0,0,.72022,1.69486c1.30045,1.11088,2.57132,2.25632,3.86814,3.37152A1.88454,1.88454,0,0,1,49.534,37.65815Z"/><path class="cls-1" d="M26.00207,18.86838a8.29474,8.29474,0,0,0-8.64328,8.409,8.4568,8.4568,0,1,0,16.91078.25087A8.33523,8.33523,0,0,0,26.00207,18.86838Zm-.21435,15.34733a6.87294,6.87294,0,1,1,6.87268-6.86512A6.796,6.796,0,0,1,25.78772,34.21571Z"/></g></g></svg>