<svg xmlns="http://www.w3.org/2000/svg" viewBox="0 0 157.49422 153.61906"><defs><style>.cls-1{fill:none;stroke:#252525;stroke-miterlimit:10;stroke-width:3px;}</style></defs><g id="Layer_2" data-name="Layer 2"><g id="Layer_35" data-name="Layer 35"><path class="cls-1" d="M93.96256,108.04091a80.14109,80.14109,0,0,0,16.61974-3.31334c9.2067-3.13512,15.26976-9.248,17.13819-18.99869,1.98114-10.33893,3.1852-20.60712-5.26724-29.05006-1.50139-1.49972-.93277-3.04217-.565-4.63108,1.11292-4.80779.71392-9.53147-.23316-14.34461-.7262-3.69058-2.73008-4.52722-5.994-3.91787a33.91339,33.91339,0,0,0-12.72753,5.46694,10.49783,10.49783,0,0,1-9.1717,1.80108,64.78608,64.78608,0,0,0-31.10112.27719,7.56409,7.56409,0,0,1-6.0332-.98574C51.84423,37.73912,47.3257,34.53,41.68218,33.76964c-3.02258-.40722-4.46577.47825-5.26373,3.58512-1.40873,5.48481-.21529,10.91888-.48176,16.309-.25895,5.23773-5.83052,8.974-6.20083,14.76528a55.532,55.532,0,0,0,2.564,22.15209A20.07616,20.07616,0,0,0,42.5147,102.30258a55.15113,55.15113,0,0,0,20.90368,5.67027c-1.47712,3.15749-3.20289,6.0707-3.87949,9.42311-.39991,1.98139-2.51837,1.96192-4.05335,2.30267-7.84267,1.741-14.16127-.49266-18.32872-7.57728-2.40163-4.08274-5.67518-6.95413-10.28466-8.06542-1.722-.41516-4.174-1.06178-5.11282.5893-1.15486,2.03094,1.39151,3.03365,2.67377,4.00655,3.27492,2.4848,6.16,5.44108,7.38417,9.24188,3.28763,10.2076,10.99071,12.42249,20.36065,12.1989,7.33513-.175,7.336-.13838,7.336,7.45636,0,2.82978.02321,5.65979-.005,8.4893-.05809,5.82577-1.91814,7.212-7.4188,5.23447a70.15677,70.15677,0,0,1-20.88425-11.4834C7.81985,120.68719-1.619,95.7658,2.39764,66.21558,6.33171,37.27289,22.20594,16.455,49.83374,6.55694c46.31731-16.59375,94.55845,9.19192,104.34341,54.81259,7.99916,37.29478-10.99317,74.39883-45.53359,88.78274a24.09223,24.09223,0,0,1-5.17758,1.68658c-3.22084.53825-5.022-.6736-4.9681-4.31081.12084-8.15462.07055-16.31247.02361-24.46861C98.49146,117.84138,97.77851,112.78175,93.96256,108.04091Z"/></g></g></svg>