<svg xmlns="http://www.w3.org/2000/svg" viewBox="0 0 159.53145 159.86611"><defs><style>.cls-1{fill:#252525;}</style></defs><g id="Layer_2" data-name="Layer 2"><g id="Layer_35" data-name="Layer 35"><path class="cls-1" d="M79.72833,0C35.68341-.01141-.12006,36.061.0003,80.32721c.11914,43.86438,36.25952,79.78791,80.01782,79.5376A79.933,79.933,0,0,0,79.72833,0ZM14.826,42.104C26.72491,22.72211,43.512,10.65845,65.79352,6.17389c3.61621-.72778,6.58349-.51752,7.58349,3.86542a13.55035,13.55035,0,0,0,1.3125,2.68188c4.71851,9.68207,4.71753,9.68256-2.51782,17.82886-6.47412,7.28906-6.53076,11.275-.25269,18.64734.75464.88623,1.56543,1.72467,2.32032,2.61066,1.36889,1.6065,2.3081,3.35608,1.04785,5.42639-1.31348,2.15765-3.22315,1.90991-5.261,1.16235-1.71216-.62805-3.46973-1.13354-5.21289-1.67468-6.42187-1.99335-11.40893-.01782-13.68213,5.41132-2.33618,5.58013.06665,10.51361,5.92066,14.00219,11.148,6.64356,22.79858,10.15045,36.00024,8.94892,8.15967-.74268,14.32373,6.14306,14.37183,14.46551.13818,5.82068-1.99268,10.4845-7.3169,13.15607-7.13354,3.57934-11.0852,9.28894-12.27783,17.07733-.20068,1.31134-.57886,2.59729-.906,3.88715-1.09545,4.31738-3.81787,6.65472-8.322,6.124-4.58789-.54053-6.44311-3.66657-6.51538-8.01923-.05517-3.3269-.04785-6.65582-.00659-9.983.06055-4.864-1.65137-8.78192-5.96631-11.30438-3.08056-1.8009-4.02417-4.5174-4.07739-7.96362C61.8753,92.1482,57.921,86.9325,48.1402,83.86444c-6.01075-1.88537-12.01563-3.79651-18.07178-5.52612A19.22094,19.22094,0,0,1,17.54474,67.7395c-1.01954-2.09313-1.79029-4.39111-3.18482-6.203C9.21026,54.84528,10.69439,48.834,14.826,42.104ZM151.92926,100.6106A74.93722,74.93722,0,0,1,59.786,152.197C20.46,141.16431-3.43207,100.42859,6.90143,62.02033c.16455-.61157.40356-1.20307,1.07714-3.18482,2.02759,4.01361,3.60743,6.89527,4.96558,9.87787A24.78224,24.78224,0,0,0,29.76666,83.08881c6.073,1.66431,12.0647,3.64636,18.03711,5.6524,6.77881,2.27686,9.57715,5.79773,9.5835,12.86225.00537,5.80731,1.572,10.42718,6.92773,13.32873,2.47119,1.33881,3.1626,3.69654,3.14819,6.35865-.0205,3.82763-.11718,7.66027.03516,11.48217a12.095,12.095,0,0,0,10.64429,11.93988c5.49682.79938,10.89038-2.952,12.76684-8.941a28.8293,28.8293,0,0,0,1.04492-4.36578c1-6.75043,4.5-11.39813,10.61231-14.696,8.19556-4.42194,11.37427-13.39667,8.85889-22.79773-2.15064-8.0376-9.792-13.82318-18.57227-13.9665-4.65894-.076-9.32837.16431-13.97876-.0523-8.71338-.406-15.37476-5.75794-22.44092-9.93872-2.10425-1.245-2.178-4.04566-1.02588-6.3656a4.97457,4.97457,0,0,1,5.835-2.7901,86.56093,86.56093,0,0,1,8.61377,2.41119c3.88721,1.23755,6.91309-.10925,9.19385-3.15173,2.38916-3.18763,2.04956-6.523-.1814-9.72419-.18994-.2724-.40307-.52844-.60449-.79278-7.45092-9.78089-7.55517-9.86853.19654-19.087,4.65039-5.53045,5.426-11.15326,1.80688-17.4386-1.38623-2.40753-2.52515-4.95752-4.05518-7.99566,23.115-.49793,42.22779,7.04052,57.92847,23.11535,3.60987,3.69587,9.2312,7.96436,8.81787,12.11353-.43969,4.41553-7.90454,5.00543-12.33569,7.12994-10.75928,5.15845-12.66846,9.14856-8.89307,20.55091,6.81787,20.59222,3.71363,18.38818,25.54663,24.18139C153.876,93.86255,153.86871,93.89032,151.92926,100.6106Zm-6.4646-13.6c-10.58862-1.89142-17.07837-6.9494-18.57642-17.83825a31.52126,31.52126,0,0,0-1.48608-4.73859c-1.92554-6.28149-.64624-9.28168,5.20093-11.996,3.90234-1.8114,7.97314-3.3003,11.73584-5.35907,3.46-1.89331,4.81-.63349,6.14917,2.55957A81.42336,81.42336,0,0,1,154.88336,79.609C154.99225,89.38526,155.1087,88.73328,145.46466,87.01062Z"/></g></g></svg>