<svg xmlns="http://www.w3.org/2000/svg" viewBox="0 0 156.01437 158.4912"><defs><style>.cls-1{fill:none;stroke:#000;stroke-miterlimit:10;stroke-width:4px;}</style></defs><g id="Layer_2" data-name="Layer 2"><g id="Layer_35" data-name="Layer 35"><path class="cls-1" d="M116.23871,68.33681c10.82171-.00008,21.64608.13406,32.46356-.07931,3.38049-.06667,4.56367.9138,4.88662,4.33234,4.23754,44.85612-23.37235,83.99324-74.10468,83.9012C40.18874,156.41974,8.186,128.39386,2.71037,89.09559-2.4891,51.779,21.33808,15.26088,58.31741,5.157c25.25238-6.89971,48.71088-2.6178,69.45749,14.10791,2.83485,2.28543,2.78106,3.62218.12128,6.00048C122.68865,29.9218,117.73476,34.872,112.835,39.857c-1.85909,1.89144-3.05748,2.02395-5.30784.33714-16.125-12.08689-36.27633-13.0013-53.23238-2.653A48.886,48.886,0,0,0,31.70331,87.21367c3.33387,19.94025,17.66891,35.63382,36.485,39.94272,23.82641,5.45626,46.27647-5.63636,53.87205-26.61829,2.04176-5.64013,1.97376-5.74859-3.99-5.75261-11.48767-.00775-22.97716-.11612-34.46182.06949-3.268.05283-4.356-.862-4.22079-4.18542.25017-6.149.23838-12.32187.00122-18.4719-.1186-3.07509.78238-3.98358,3.8863-3.932C94.26045,68.44844,105.25051,68.3369,116.23871,68.33681Z"/></g></g></svg>