<svg xmlns="http://www.w3.org/2000/svg" viewBox="0 0 67 50.63291"><defs><style>.cls-1{fill:#fff;stroke:#fff;stroke-miterlimit:10;stroke-width:2px;}</style></defs><g id="Layer_2" data-name="Layer 2"><g id="Layer_32" data-name="Layer 32"><path class="cls-1" d="M53.48,41.89083c-1.9,2.31-4.01,3.61-7,2.03-.61-.32-.87.13-1.18.51-.84,1.05-1.67,2.11-2.55,3.13a5.21606,5.21606,0,0,1-7.74.65c-.96-.82-1.57-1.02-2.72-.19-3.38,2.44-7.63,2.03-10.83-.84-3.05-2.74-6.11-5.46-9.12-8.24a3.48708,3.48708,0,0,0-2.58-1c-2.92.04-5.84.04-8.76.04v-1.83H3.24c2.37,0,4.75.07,7.12-.03a3.91266,3.91266,0,0,1,3.02,1.18q4.56,4.23,9.22,8.37c3.25,2.91,6.95,2.84,10.06-.26.71-.71,1.23-.77,1.86005-.06,3.16,3.59,5.7,3.09,8.55-.98.28-.39.62-.74.94-1.11.55-.66.99-1.55,1.7-1.91.85-.43,1.22.83,1.98,1.08a3.9424,3.9424,0,0,0,1.4.34c1.42-.04,3.34-1.7,3.91-3.5a3.06062,3.06062,0,0,0-1.29-3.52c-5.51-4.43-10.98-8.9-16.47-13.35a6.10206,6.10206,0,0,1-.63-.51c-.46-.50995-1.47-.94-.73-1.81.7-.81,1.36-.09,1.93.38q8.595,7.00507,17.16,14.03C55.46,36.55086,55.56,39.38088,53.48,41.89083Z"/><path class="cls-1" d="M66,8.75087v1.97H63.24c-.11,0-.22-.01-.33,0a14.28239,14.28239,0,0,1-11.67-3.45c-4.12-3.54-9.47-4.47-14.91-4.31a3.18478,3.18478,0,0,0-2.18.89c-3.92,3.62-7.89,7.19-11.79,10.84a3.84919,3.84919,0,1,0,5.13,5.74c2.86-2.45,5.62-5.03,8.43-7.55.44-.4.87-.81006,1.33-1.18006a.89611.89611,0,0,1,1.31-.04.8853.8853,0,0,1-.13,1.41c-3.47,3.15-6.8,6.48-10.52,9.34-2.09,1.6-5.4.99-7.17-1.02-1.96-2.22-2.2-5.53-.17-7.5,4.18-4.06,8.53-7.94,12.85-11.84a5.56015,5.56015,0,0,1,3.98-1.05,26.5232,26.5232,0,0,1,17.87,6.82,3.51748,3.51748,0,0,0,2.6.96C60.58,8.75087,63.29,8.75087,66,8.75087Z"/><path class="cls-1" d="M29.06,2.04085c.03.99-.94.9-1.59.92A25.597,25.597,0,0,0,10.4,10.00087a2.40274,2.40274,0,0,1-1.78.58q-3.24-.015-6.47-.01H1v-1.81q3.405,0,6.81.01a2.77762,2.77762,0,0,0,2.04-.72,27.78409,27.78409,0,0,1,17.49-6.98C28.11,1.03084,29.03,1.01082,29.06,2.04085Z"/><path class="cls-1" d="M66,36.14083v1.81c-2.64.02-5.28.01-7.91-.01-.63-.01-1.2-.29-1.14-1.07.06-.73.65-.74,1.21-.73Z"/></g></g></svg>