<svg xmlns="http://www.w3.org/2000/svg" viewBox="0 0 49.68412 42.40397"><defs><style>.cls-1{fill:#252525;}</style></defs><g id="Layer_2" data-name="Layer 2"><g id="Layer_32" data-name="Layer 32"><path class="cls-1" d="M49.66655,11.95689a7.90851,7.90851,0,0,0-.20026-1.1433C48.36975,5.39179,45.18006,1.80252,39.8246.46911A12.55282,12.55282,0,0,0,26.27956,4.981c-1.40192,1.69876-1.36934,1.72564-2.75.00485a13.23334,13.23334,0,0,0-21.248.80592c-3.79088,5.6485-2.74511,14.27337,2.301,19.00927Q13.123,32.81657,21.65721,40.83885c2.22836,2.09693,4.249,2.07944,6.46546-.00828C33.46088,35.80232,38.78115,30.7538,44.1888,25.801c3.525-3.2285,5.64484-7.02411,5.48685-11.9025C49.67565,13.25111,49.69979,12.60253,49.66655,11.95689Zm-1.40883,1.92652a13.76923,13.76923,0,0,1-4.75619,10.61517c-5.48206,4.99589-10.8777,10.0867-16.30345,15.14429-1.87674,1.74939-2.75784,1.73894-4.61337.00132Q14.22848,31.819,5.848,24.01978C.43342,18.96305-.07746,10.24907,4.73576,5.13219A11.62679,11.62679,0,0,1,21.95227,5.483c.81657.94706,1.61127,1.91617,2.36132,2.91617.44015.58686.70471.54428,1.1566-.003a31.15746,31.15746,0,0,1,3.26736-3.83263A11.08138,11.08138,0,0,1,41.1242,2.46984c4.567,1.92974,6.85116,5.58228,7.13131,10.50761C48.27262,13.27851,48.25772,13.58138,48.25772,13.88341Z"/></g></g></svg>