<svg xmlns="http://www.w3.org/2000/svg" viewBox="0 0 66.55075 51.34398"><defs><style>.cls-1{fill:#252525;}</style></defs><g id="Layer_2" data-name="Layer 2"><g id="Layer_32" data-name="Layer 32"><path class="cls-1" d="M60.28107,2.641c-5.62-4.07352-13.82424-3.79461-19.90224,3.38092-.354.418-.52865.88638-.03864,1.30654a.89959.89959,0,0,0,1.32256-.1429c.60393-.58846,1.19729-1.18776,1.79765-1.77994a12.15935,12.15935,0,0,1,8.9926-3.643,15.82506,15.82506,0,0,1,2.919.36271,12.50893,12.50893,0,0,1,5.67527,21.05362c-5.0002,5.03547-10.03708,10.03451-15.05061,15.05677A12.5047,12.5047,0,1,1,28.1291,20.7366c1.37586-1.42982,2.77472-2.83772,4.13843-4.27892.36557-.38635.80474-.84995.25619-1.4104-.6249-.63845-1.06918-.10763-1.49536.30021-1.18231,1.13145-2.375,2.25346-3.52265,3.41947-4.25273,4.3208-5.83195,9.40985-3.91318,15.24689,3.34529,10.1766,15.90425,13.01421,23.79809,5.37181,4.98965-4.83073,9.87463-9.7743,14.68779-14.78142C68.68179,17.73474,67.8818,8.15014,60.28107,2.641Z"/><path class="cls-1" d="M24.939,44.27155c-.78254.76-1.54875,1.54013-2.37059,2.25586A12.5174,12.5174,0,0,1,5.13462,45.608a12.278,12.278,0,0,1,.24207-17.29641q7.66443-7.701,15.365-15.36606a11.893,11.893,0,0,1,7.93691-3.61071,12.40241,12.40241,0,0,1,12.102,7.27961,12.70074,12.70074,0,0,1-2.31682,13.96737c-1.39132,1.48172-2.81119,2.93683-4.22868,4.39371-.37444.38484-.69129.78884-.26111,1.28171.5221.5982.97766.18526,1.38327-.20152,1.22018-1.16363,2.41615-2.35293,3.647-3.50511a14.68753,14.68753,0,0,0,4.7292-11.09351A13.75819,13.75819,0,0,0,35.25611,8.92653c-5.436-2.485-10.721-1.695-15.07235,2.3325C14.54545,16.47774,9.09453,21.91988,3.83582,27.52191A13.90853,13.90853,0,0,0,5.25145,47.99154c6.1774,5.08422,14.79844,4.51111,20.85584-2.58125.36351-.42561.52454-.889.10791-1.32265C25.75585,43.60945,25.32913,43.89267,24.939,44.27155Z"/></g></g></svg>