<svg xmlns="http://www.w3.org/2000/svg" viewBox="0 0 58.54067 51.99577"><defs><style>.cls-1{fill:#252525;}</style></defs><g id="Layer_2" data-name="Layer 2"><g id="Layer_32" data-name="Layer 32"><path class="cls-1" d="M58.53894,17.10436c-.001-3.10407-1.92718-4.47534-4.82421-3.42322-2.88569,1.048-5.74769,2.16394-8.65229,3.15558A2.29132,2.29132,0,0,0,43.2157,18.951a3.30621,3.30621,0,0,0,1.62152-.41523c3.14228-1.12774,6.27271-2.28845,9.41748-3.40881,1.79151-.63831,2.75672.00586,2.75977,1.85791.0141,8.50549-.00391,17.01111.01666,25.5166a2.2553,2.2553,0,0,1-1.73407,2.39392q-6.76116,2.40006-13.47149,4.942c-1.03809.39362-1.203.1239-1.19727-.87085q.051-8.82194-.00647-17.64416c-.00482-.70093.48761-1.95374-.75641-1.93256-1.16705.0199-.75342,1.24719-.75751,1.973-.03308,5.88129-.0191,11.76288-.01757,17.64435.00018.6499.142,1.2962-.97.94641Q29.33812,47.1909,20.52,44.54344c-.88531-.26556-1.05957-.71667-1.05151-1.551.03888-4.02618.02447-8.053.01031-12.07947-.00225-.63965.19971-1.5686-.78772-1.56317-.93676.00519-.67273.90515-.675,1.48981-.01557,4.02649-.032,8.05334.01013,12.07947a1.48421,1.48421,0,0,1-1.13635,1.68676c-4.17072,1.47406-8.31067,3.035-12.4715,4.53748-2.017.72833-2.87818.08856-2.87933-2.09223-.00422-8.32458.01739-16.64923-.02063-24.97363a2.37949,2.37949,0,0,1,1.79986-2.62018C6.56,18.34264,9.76508,17.12108,12.98,15.92913c.609-.22577,1.4524-.353,1.054-1.34144-.42291-1.04919-1.12116-.21875-1.56195-.06866-3.24646,1.105-6.46118,2.30347-9.68775,3.46729C.662,18.75182.00367,19.66875.00287,21.92662Q-.00143,34.48135.00367,47.036c.00225,3.29248,1.95983,4.6607,5.08422,3.52429,4.19849-1.52716,8.3852-3.08691,12.57026-4.65045a2.98179,2.98179,0,0,1,2.08227-.0611C25.935,47.81163,32.14508,49.72557,38.354,51.643a3.53636,3.53636,0,0,0,2.48858.19135c5.0196-1.90558,10.06806-3.73487,15.10218-5.60242,2.052-.76129,2.5943-1.56177,2.5946-3.7467Q58.54138,29.79481,58.53894,17.10436Z"/><path class="cls-1" d="M27.62494,31.37364c1.1416,1.45191,2.25867,1.38355,3.429-.07971a82.8879,82.8879,0,0,0,7.12042-10.20349c1.62689-2.81219,3.18622-5.6781,3.26746-8.23645C41.43134,5.323,35.73365-.2364,29.04316.00774c-8.80768.32135-14.14869,9.006-10.944,16.46912C20.45887,21.9724,23.96668,26.72112,27.62494,31.37364ZM25.39069,2.28087A10.64074,10.64074,0,0,1,39.35236,8.7415a9.48081,9.48081,0,0,1,.53876,3.18976,10.8517,10.8517,0,0,1-1.39234,5.18244,62.11171,62.11171,0,0,1-8.402,12.91088c-.49335.62055-.91224.902-1.55634.0879A65.99106,65.99106,0,0,1,19.515,15.8521C17.09363,10.35167,20.42548,4.09294,25.39069,2.28087Z"/><path class="cls-1" d="M29.19159,16.2329a4.82957,4.82957,0,1,0-4.7257-4.94245A4.93266,4.93266,0,0,0,29.19159,16.2329ZM29.44947,8.117a3.07674,3.07674,0,0,1,3.10711,3.46942,3.12184,3.12184,0,0,1-3.35485,3.10474,3.22986,3.22986,0,0,1-3.2165-3.423A3.19125,3.19125,0,0,1,29.44947,8.117Z"/></g></g></svg>