<svg xmlns="http://www.w3.org/2000/svg" viewBox="0 0 189.11463 201.16635"><defs><style>.cls-1{fill:#fff;}</style></defs><g id="Layer_2" data-name="Layer 2"><g id="Layer_35" data-name="Layer 35"><g id="Layer_2-2" data-name="Layer 2"><g id="Layer_32" data-name="Layer 32"><path class="cls-1" d="M120.56371,4.40072a12.26257,12.26257,0,0,0-14.62488-3.236,78.73271,78.73271,0,0,0-27.28927,20.525A291.84456,291.84456,0,0,0,50.67516,63.0323C38.86183,83.11388,26.09153,102.39206,5.28681,114.74579a10.60477,10.60477,0,0,0-1.569,17.23664q32.19771,32.388,64.57875,64.59387a13.2349,13.2349,0,0,0,17.186,2.48226,83.16209,83.16209,0,0,0,22.367-16.67979,255.21367,255.21367,0,0,0,29.6335-42.58c12.16075-20.4849,24.893-40.45656,46.08255-53.22776,6.90191-4.15986,7.29447-11.84093,1.57311-17.573q-15.99-16.01985-32.00683-32.01275Q136.8439,20.69679,120.56371,4.40072Zm60.81006,67.1824c4.53967,4.55307,4.30641,8.25051-1.151,11.61626-18.87616,11.64154-31.28136,29.05543-42.67651,47.39252-7.59124,12.21593-14.5051,24.85095-22.919,36.55763a84.90232,84.90232,0,0,1-31.39148,27.81318c-5.02946,2.471-8.10157,2.20494-11.93473-1.61743Q39.39643,161.52881,7.577,129.62685c-4.0205-4.031-3.813-8.76811.74036-11.4503,17.317-10.20062,29.10305-25.56256,39.77482-42.0178,8.33155-12.84642,15.366-26.47966,24.1976-39.04a94.09291,94.09291,0,0,1,32.328-30.3311c6.0846-3.24913,8.94112-2.98653,13.88056,1.92737q15.759,15.67668,31.44426,31.42745Q165.6606,55.86046,181.37377,71.58312Z"/><path class="cls-1" d="M72.82536,75.0135c-8.79394,6.90747-10.97573,16.33717-9.079,26.91943A37.64685,37.64685,0,0,0,99.48587,131.9015,25.82745,25.82745,0,0,0,125.839,106.61068q.01016-.49368.00144-.98747a38.24889,38.24889,0,0,0-24.6561-34.29809C91.12173,67.60938,81.44836,68.24041,72.82536,75.0135ZM121.00082,102.169a21.71232,21.71232,0,0,1-24.51918,25.076,33.35636,33.35636,0,0,1-28.5708-27.70563c-2.20582-17.27578,11.5358-29.2852,28.48935-24.9373a32.24526,32.24526,0,0,1,14.99763,8.71613A31.74767,31.74767,0,0,1,121.00082,102.169Z"/><path class="cls-1" d="M155.92955,56.23455c-.71955.58889-1.38473,1.244-1.57124,1.41329a22.12519,22.12519,0,0,0-.087,31.16756c1.28506,1.31941,2.84529,3.121,4.697,1.27771,1.74479-1.73689-.18883-3.01685-1.29462-4.30231-7.23116-8.406-7.16932-16.61392.13444-24.95673a10.49817,10.49817,0,0,0,1.37562-1.93143,1.87507,1.87507,0,0,0-.36557-2.53234A2.08477,2.08477,0,0,0,155.92955,56.23455Z"/><path class="cls-1" d="M63.89524,172.35146c-1.03632,1.07344-3.66353,2.54712-1.506,4.74662,1.86653,1.9029,3.5665-.352,4.99369-1.67886,7.31989-6.80519,16.13663-6.74431,23.57365.16407,1.44355,1.34095,3.08964,3.374,5.00493,1.23285,1.68219-1.88048-.19626-3.42378-1.61964-4.62856C84.553,163.902,73.70263,163.84469,63.89524,172.35146Z"/><path class="cls-1" d="M124.76631,28.85116c.82395-1.35159,3.79833-2.47957,1.732-4.68324-2.05231-2.18855-3.50944.36239-4.88013,1.60549-7.50187,6.80347-16.17646,6.66491-24.4187-.43862-1.23142-1.06129-2.42792-3.16807-4.23689-1.18334-1.77153,1.94351.022,3.43731,1.35229,4.70284a21.48894,21.48894,0,0,0,30.38988.05841Z"/><path class="cls-1" d="M30.17545,110.93054c-2.76333,2.26039.44269,4.126,1.90759,5.74967a16.13556,16.13556,0,0,1,1.11408,20.85351c-1.01851,1.38487-2.29263,2.57894-3.38158,3.91579a2.32237,2.32237,0,0,0,.00305,3.26829c1.06528,1.12626,2.15964.59237,3.11-.3303.57278-.556,1.13044-1.12738,1.69776-1.689,8.01372-8.30566,8.40274-18.65884.98088-28.84892C34.29165,112.0431,32.75359,108.82157,30.17545,110.93054Z"/></g></g><path class="cls-1" d="M66.0046,99.42153a27.96838,27.96838,0,0,0,16.169,25.25061c4.02221,1.89923,7.93994,2.3,12.331,2.74939,6.68652.68426,11.73437,1.20086,16.5-1,9.03027-4.17029,14.01709-16.69758,12-27-1.23608-6.31324-4.87061-10.26484-9-15-4.95093-5.67731-10.67065-12.236-19.5-13C88.77242,70.92549,66.0046,67.35433,66.0046,99.42153Z"/><path class="cls-1" d="M88.0046,15.42153c-1.96875,5.38623,4.63306,13.3482,11,17a23.09392,23.09392,0,0,0,12,3,24.24222,24.24222,0,0,0,16-7c2.38232-2.4372,5.15112-5.27857,5-9-.16724-4.12153-3.80127-6.76453-11-12-4.60767-3.35108-6.97339-5.02613-10-5-2.97241.02563-4.15942,1.44934-10,5C91.01144,13.4966,88.97677,12.76174,88.0046,15.42153Z"/><path class="cls-1" d="M166.0046,51.42153c-1.56152.37353-10.61206,2.69329-15.20093,11.37445a22.11328,22.11328,0,0,0-2.38891,12.13641,24.24258,24.24258,0,0,0,7.80078,15.6253c2.34985,2.0752,5.30908,4.63093,9.24145,4.53815,2.3208-.05475,3.20264-.99493,12.54761-8.67431,5.87329-4.82642,7.76147-6.2931,8-9,.20288-2.3014-.90479-4.16108-2-6-2.47827-4.1612-5.6499-5.991-8.13159-7.89319A35.66726,35.66726,0,0,1,166.0046,51.42153Z"/><path class="cls-1" d="M25.18621,148.76638c1.51989-.51751,10.31469-3.67108,14.0741-12.7423a22.11336,22.11336,0,0,0,1.24685-12.30629,24.24259,24.24259,0,0,0-9.22377-14.82985c-2.53311-1.847-5.71776-4.1157-9.62435-3.65666-2.30558.27091-3.09591,1.28923-11.68411,9.80652-5.39766,5.353-7.14086,6.98939-7.12594,9.70675.01259,2.31028,1.28884,4.05857,2.55075,5.78737,2.85549,3.912,6.18392,5.4381,8.83216,7.10057A35.66726,35.66726,0,0,1,25.18621,148.76638Z"/><path class="cls-1" d="M104.874,183.68349c-.26-1.58435-1.92236-10.77838-10.25048-15.98029a22.666,22.666,0,0,0-11.93311-3.25647c-7.26562-.12726-12.35693,2.95771-15.68579,4.9748-1.15479.69976-11.25855,6.92071-10,11,.27124.87884.94458,1.25268,2,2,4.10229,2.90466,3.28271,3.88012,10.09644,10.71118,5.89965,5.91479,7.63452,6.30664,8.90356,6.28882,1.15771-.01624,1.87158-.37269,5-2,5.697-2.96326,8.54565-4.44489,9.0835-4.76679A110.32887,110.32887,0,0,0,104.874,183.68349Z"/></g></g></svg>