<svg xmlns="http://www.w3.org/2000/svg" viewBox="0 0 71.77646 47.96868"><defs><style>.cls-1{fill:#252525;stroke:#252525;stroke-miterlimit:10;stroke-width:0.3312px;}</style></defs><g id="Layer_2" data-name="Layer 2"><g id="Layer_32" data-name="Layer 32"><path class="cls-1" d="M71.60878,9.11272C71.69777,4.74,68.92062.073,62.64334.167c-3.69416.05531-7.38984.01-11.08489.01Q30.381.177,9.20361.18137C3.40193.18685.1684,3.4369.16844,9.19725Q.16853,24.16614.17186,39.135C.1781,44.43361,3.57,47.79639,8.8792,47.79858q13.484.00552,26.9681.00095,13.64952-.00006,27.299-.00417a7.98181,7.98181,0,0,0,8.396-8.41545C71.54688,29.2904,71.40352,19.198,71.60878,9.11272ZM62.56191,45.87883q-26.71962.00238-53.43932-.00029c-4.75814-.0006-7.079-2.33282-7.08025-7.11107q-.00388-14.886.00119-29.772C2.0463,4.533,4.41673,2.13836,8.86464,2.13207q13.56662-.0192,27.13331-.00372,13.31844.00015,26.6369.001c4.79862.0017,7.052,2.268,7.05443,7.10505q.0074,14.72063.00012,29.44126C69.68721,43.63024,67.46,45.87838,62.56191,45.87883Z"/><path class="cls-1" d="M36.0556,12.14345A11.70247,11.70247,0,0,0,24.0804,23.87432,11.83464,11.83464,0,1,0,36.0556,12.14345Zm-.255,21.77168a9.77678,9.77678,0,0,1-9.90331-9.84173A9.81527,9.81527,0,0,1,35.96762,14.05768,9.7818,9.7818,0,0,1,45.854,24.07641,9.73232,9.73232,0,0,1,35.80065,33.91513Z"/><path class="cls-1" d="M65.782,32.94833a9.001,9.001,0,0,0-9.032,8.8771c-.03671.753-.13447,1.74958.88369,1.858,1.19661.12738.93009-.924.984-1.64975.332-4.46831,2.86391-6.96763,7.25561-7.15353.71545-.0303,1.62582.07,1.62845-.9175C67.50467,32.896,66.5696,32.93723,65.782,32.94833Z"/><path class="cls-1" d="M14.07149,4.32806c-1.1956-.06675-.88324,1.02468-.94138,1.72085-.37369,4.47854-2.58523,6.6193-7.33439,7.06482-.64346.06037-1.482-.02149-1.51021.88726-.03131,1.01009.85425,1.02216,1.56008,1.03431a8.90432,8.90432,0,0,0,9.13057-8.89267C14.96266,5.38478,15.1431,4.38788,14.07149,4.32806Z"/><path class="cls-1" d="M66.028,13.1197c-.32659-.04676-.66014-.04326-.98989-.07057A6.48684,6.48684,0,0,1,58.92784,7.708a17.68348,17.68348,0,0,1-.30739-2.45095c-.03591-.51849-.24259-.87976-.73507-.94447a.9342.9342,0,0,0-1.06909.81585,3.95173,3.95173,0,0,0-.06639,1.14789,8.96891,8.96891,0,0,0,9.00867,8.77051c1.10488.05216,1.84726-.34331,1.78091-1.007C67.44742,13.11869,66.6604,13.21022,66.028,13.1197Z"/><path class="cls-1" d="M5.66786,32.945c-.7141.04057-1.40244.14921-1.38346,1.02485.01678.77381.64375.9235,1.30792.90288.21931-.00679.43946.00146.65885.01132a6.82113,6.82113,0,0,1,6.78413,6.16964c.07367.54237.07581,1.09447.11082,1.64209s.25524,1.021.84613,1.01955c.64106-.00153.963-.44493.97267-1.08892.00408-.2744.00065-.54893.00065-.82341A8.95176,8.95176,0,0,0,5.66786,32.945Z"/></g></g></svg>