<svg xmlns="http://www.w3.org/2000/svg" viewBox="0 0 84.08024 75.342"><defs><style>.cls-1{fill:#252525;}</style></defs><g id="Layer_2" data-name="Layer 2"><g id="Layer_34" data-name="Layer 34"><path class="cls-1" d="M41.7.3252c-.071-.01679-.09973-.21283-.14813-.3252H40.37978c-.04413.75928-.678.65057-1.14783.77344Q27.26428,3.90244,15.29586,7.029C10.432,8.30328,9.24324,9.84814,9.24318,14.85211q-.00054,28.21382.03363,56.42755c.00385,1.4397-.30688,1.94831-1.811,1.84388-2.00812-.13941-4.03327-.04017-6.051-.02857-.69885.004-1.389.21-1.41394,1.01129-.027.86792.57739,1.24011,1.4303,1.20142.32483-.01477.65082-.00611.97626-.00617,13.79931-.00024,27.59875-.03521,41.39764.04035,1.89966.01037,2.41742-.543,2.41205-2.42725-.062-21.73785-.11768-43.47644.03589-65.21332C46.27925,3.9939,45.69673,1.26843,41.7.3252Zm.871,72.80291q-14.64432-.11526-29.28979-.006c-1.45209.00946-1.87384-.37036-1.87018-1.84253.0473-19.13409.02588-38.26837.03772-57.40253.00177-2.79644.79657-3.83172,3.55291-4.55072Q27.62481,6.0337,40.26723,2.8147a3.11819,3.11819,0,0,1,3.98694,2.65735,15.033,15.033,0,0,1,.08191,2.33825q.00667,15.61973.003,31.2395c.00006,10.73859-.02551,21.47736.03107,32.21564C44.37764,72.67218,44.09139,73.14008,42.57094,73.12811Z"/><path class="cls-1" d="M82.564,73.09747c-1.82177-.01446-3.65319-.12286-5.46283.02515-1.76855.14465-2.30755-.39453-2.30041-2.23254.07062-18.08612.04333-36.17261.04217-54.259-.00024-4.68231-2.09777-6.82684-6.75933-6.85193-4.61951-.02484-9.23932-.0094-13.859.00013a7.56617,7.56617,0,0,0-1.54834.13586.97051.97051,0,0,0-.86212.92529,1.02577,1.02577,0,0,0,.89825,1.10523,9.88914,9.88914,0,0,0,1.74542.12671c4.48957.0094,8.97913-.00165,13.46869.00726,3.696.00739,4.78766,1.08978,4.79,4.75525q.00861,13.8576.00189,27.71515v1.95178c.00006,8.848.02643,17.69617-.02338,26.54388-.00933,1.66053.51636,2.36091,2.257,2.28394,2.5326-.11206,5.07392-.03162,7.61145-.02338.76941.00251,1.53321-.08728,1.51648-1.06C84.06441,73.34088,83.34145,73.10364,82.564,73.09747Z"/><path class="cls-1" d="M34.154,32.14246a4.22027,4.22027,0,0,0-4.27289,2.763A7.56941,7.56941,0,0,0,29.191,37.508c-.27057,3.26068,2.10223,6.07568,4.92108,5.94793,2.355-.10675,4.176-2.55163,4.19732-5.6358a6.07343,6.07343,0,0,0-.40295-2.47772C37.22878,33.61334,36.17763,32.28314,34.154,32.14246Zm1.77264,7.33313c-.31384,1.04309-.88641,1.97625-2.11175,1.92559a2.10593,2.10593,0,0,1-1.99524-2.03509,9.983,9.983,0,0,1-.00275-2.69513,2.2392,2.2392,0,0,1,1.92652-2.14374c1.23211-.12427,1.795.85187,2.12487,1.8877a10.22229,10.22229,0,0,1,.25373,1.4967A9.19993,9.19993,0,0,1,35.92665,39.47559Z"/></g></g></svg>