<svg xmlns="http://www.w3.org/2000/svg" viewBox="0 0 74.10851 74.00419"><defs><style>.cls-1{fill:#252525;}</style></defs><g id="Layer_2" data-name="Layer 2"><g id="Layer_32" data-name="Layer 32"><path class="cls-1" d="M65.19237,41.11526c-1.31233.05613-.93717,1.21632-.94,1.99734-.02266,6.2606-.00541,12.52131-.01464,18.782-.00976,6.63021-3.21934,9.86134-9.785,9.86448q-10.578.005-21.1561.00077-10.7758,0-21.55151-.00266c-6.24819-.01-9.45521-3.23926-9.45779-9.51965q-.00881-21.35218-.00022-42.70438c.00227-6.287,3.20264-9.51687,9.45366-9.53059,6.39288-.014,12.78594.006,19.17882-.0143.88452-.00282,2.11463.1635,2.10323-1.15547-.01121-1.28956-1.21543-1.15618-2.11763-1.158-6.59064-.01317-13.18264-.08792-19.77165.01654C4.72071,7.793.14791,12.02412.09448,18.21079Q-.101,40.84639.0853,63.48464C.13,69.65344,4.75921,73.98924,10.87951,73.99422q22.34238.01823,44.68481-.00148a10.45024,10.45024,0,0,0,10.812-10.695c.0743-6.72117.02357-13.4438.0101-20.16575C66.38461,42.24644,66.59958,41.05507,65.19237,41.11526Z"/><path class="cls-1" d="M73.3366,6.65023C71.97224,3.62442,67.9165-.225,64.004.01028a9.3111,9.3111,0,0,0-6.32814,2.83Q41.23078,19.36768,24.783,35.89245a8.16988,8.16988,0,0,0-2.40086,3.79132c-1.06079,4.41011-2.141,8.81656-3.115,13.2461-.41873,1.90425.057,2.31832,1.90672,1.9,4.03631-.9128,8.05456-1.90741,12.09832-2.78471a9.81891,9.81891,0,0,0,4.93263-2.72369q16.53375-16.44055,33.02984-32.919C74.1074,13.531,74.86274,10.0349,73.3366,6.65023ZM62.54886,21.9092Q49.43487,34.932,36.39767,48.03208a4.0271,4.0271,0,0,1-1.76923,1.21917c-3.94511,1.005-7.89863,1.97712-11.84925,2.96053-.92925.165-.88732-.43579-.7623-.97138.91114-3.90347,1.83049-7.80523,2.78988-11.697a4.36309,4.36309,0,0,1,1.32567-1.93507q12.9348-12.92223,25.84033-25.87354c1.0962-1.107,1.73072-1.15712,2.81026-.01039,2.52791,2.68522,5.15431,5.28158,7.82013,7.831C63.57062,20.48054,63.44266,21.02161,62.54886,21.9092Zm7.95308-8.20831c-1.10872,1.20985-2.27139,2.37018-3.40774,3.55478-1.84908,1.92756-1.84188,1.92242-3.786-.03116-2.41052-2.42223-4.79712-4.87-7.2674-7.23-.95495-.91236-.931-1.4979.06193-2.34612,1.49581-1.27774,2.81665-2.761,4.31834-4.03093a5.09016,5.09016,0,0,1,6.71688-.383c2.32791,1.69713,4.64649,3.53985,4.71577,6.84909A5.25055,5.25055,0,0,1,70.50194,13.70089Z"/></g></g></svg>