<svg xmlns="http://www.w3.org/2000/svg" viewBox="0 0 139.91012 139.91425"><defs><style>.cls-1{fill:#252525;}</style></defs><g id="Layer_2" data-name="Layer 2"><g id="Layer_35" data-name="Layer 35"><path class="cls-1" d="M78.91367,76.21055C75.5311,62.15879,66.32944,53.64011,52.02305,50.701c-6.12012-1.25733-12.29273-.98053-18.3877-.62683-14.09521.818-24.82129,7.38531-30.33984,20.65808C-1.96719,83.39011-1.476,96.56034,8.79844,105.8906c7.85913,7.1369,10.04394,14.28162,9.29638,24.00543-.47241,6.14557,3.76563,9.75654,9.9961,9.9549,3.98755.12689,7.98217.02374,11.97363.02435,3.8252.00061,7.65088.05042,11.4751-.01019q10.686-.16928,10.95459-10.68481c.08764-3.48945.21728-6.99787-.04126-10.47016-.24781-3.3255.94751-5.2492,3.70386-7.29559C78.05869,102.57829,82.35093,90.48972,78.91367,76.21055Zm-16.40332,32.238c0-10.0528.05274-18.83783-.03784-27.62134-.022-2.12494,1.00513-5.52728-2.42114-5.47016-2.91333.04859-2.11573,3.25226-2.12256,5.2699-.052,15.316-.01441,30.63226-.03467,45.94843-.00977,7.21087-1.14063,8.29828-8.42407,8.30316-6.49439.00433-12.98853.01642-19.48291-.00354-6.31714-.01941-7.43775-1.161-7.44507-7.664q-.02564-22.72458-.00562-45.4491c0-.9989-.01049-1.99786-.001-2.99664.01733-1.80628-.35767-3.62976-2.51978-3.51264-1.81055.09809-2.07812,1.869-2.07959,3.44037-.0083,7.991.00415,15.98212-.019,23.97309-.00488,1.60095-.13306,3.20153-.21533,5.05242C7.52475,101.12833,3.03257,88.831,6.04819,76.76206,9.07871,64.634,19.38877,55.60154,31.68516,55.10477c7.43652-.30035,15.021-1.18182,22.35131.93189,11.88843,3.4281,18.9646,11.46039,20.85279,23.59918C76.67344,91.1038,72.566,100.43412,62.51035,108.44859Z"/><path class="cls-1" d="M127.5665,52.59831C116.39878,42.762,87.77988,43.16373,78.119,49.39646c-.90454.58368-2.96826.87134-1.99145,2.50885.72851,1.22119,1.92969,2.89392,4.05664,1.5954,8.40771-5.13293,17.76855-3.46106,26.81909-3.46619a28.17143,28.17143,0,0,1,26.73145,19.626c4.19848,12.56311-.74659,27.392-11.26294,32.782,0-8.9638.05322-17.72937-.03858-26.49334-.02246-2.12842,1.01441-5.59986-2.3042-5.56262-3.26172.03656-2.01928,3.50085-2.24707,5.62744a33.00586,33.00586,0,0,0-.022,3.49383c-.00049,14.48426.03467,28.96863-.02,43.45264-.021,5.52069-1.38477,6.87738-6.697,6.91107-7.32691.04657-14.657-.10883-21.98071.05542-4.64112.10413-6.81055-1.836-6.68457-6.50183.103-3.815.021-7.635.021-11.91773-5.99975,3.796-4.69482,9.10663-4.50683,13.92273.2207,5.66431,3.91479,9.2663,9.62719,9.39759q12.483.28683,24.97681-.00086c5.94092-.13232,9.561-3.837,9.83154-9.76428a106.90521,106.90521,0,0,0-.01318-11.4823c-.19312-3.1123.75342-5.02045,3.42578-6.94446C144.11777,93.47556,144.47617,67.492,127.5665,52.59831Z"/><path class="cls-1" d="M39.98813,39.96464C50.577,40.11979,60.05234,30.658,60.02939,19.95182,60.00644,9.23081,50.49985-.2015,39.92368.00327,29.391.20719,20.39805,9.43339,20.41636,20.01633,20.43491,30.59818,29.47324,39.81059,39.98813,39.96464Zm.49561-34.96277a14.98309,14.98309,0,1,1-.2937,29.9646A14.88046,14.88046,0,0,1,25.08848,19.83341,14.87293,14.87293,0,0,1,40.48374,5.00187Z"/><path class="cls-1" d="M100.36484,34.96568c9.34741-.14844,17.35034-8.54175,17.08741-17.92084C117.19321,7.81236,109.026-.15218,99.97934.0059a17.8019,17.8019,0,0,0-17.07446,17.922C83.17,27.17967,91.29624,35.1096,100.36484,34.96568ZM100.35752,5.002a12.37355,12.37355,0,0,1,12.4458,12.80371,12.65271,12.65271,0,0,1-25.29565-.38928A12.41211,12.41211,0,0,1,100.35752,5.002Z"/></g></g></svg>