<svg xmlns="http://www.w3.org/2000/svg" viewBox="0 0 89.35211 159.30769"><defs><style>.cls-1{fill:#252525;}</style></defs><g id="Layer_2" data-name="Layer 2"><g id="Layer_32" data-name="Layer 32"><path class="cls-1" d="M88.96617,38.99668C85.83214,15.03159,65.93785-1.31369,42.50524.0831,16.921,1.60813-1.23842,22.33622.066,46.94455A44.36468,44.36468,0,0,0,37.51988,88.78183c3.773.63166,5.19288,1.84333,5.0376,5.93231-.366,9.63349-.11743,19.29029-.11743,28.93763q0,9.4812.00049,18.96216c.00146,4.49108-.01245,8.98217.0227,13.4729.01245,1.57116.36914,3.23974,2.27539,3.2207,1.84913-.01856,2.30347-1.58911,2.30347-3.22571,0-1.16431.0061-2.32861.0061-3.493.00049-19.12842.17041-38.25958-.12646-57.38349-.06909-4.45269,1.3728-5.82043,5.51807-6.49462C75.9984,84.87906,92.08287,62.82938,88.96617,38.99668ZM44.42223,84.70133A39.77187,39.77187,0,0,1,4.63854,44.67966C4.67516,22.31729,22.4774,4.74558,45.05431,4.78647A39.857,39.857,0,0,1,84.86412,44.81253C84.82628,67.10355,66.951,84.73447,44.42223,84.70133Z"/><path class="cls-1" d="M40.22985,14.87351C27.14977,15.80814,15.7589,27.2164,15.06774,40.14066c-.18555,1.88019-.30713,4.12347,2.08154,4.28821,2.46924.17035,2.35058-2.23188,2.61108-4.00537,1.823-12.40625,8.40991-18.89112,21.06836-20.59394,1.8003-.24219,3.64624-.59784,3.53491-2.59674C44.234,14.91074,42.23937,14.72989,40.22985,14.87351Z"/></g></g></svg>