<svg xmlns="http://www.w3.org/2000/svg" viewBox="0 0 179.32986 159.58617"><defs><style>.cls-1{fill:#252525;}</style></defs><g id="Layer_2" data-name="Layer 2"><g id="Layer_35" data-name="Layer 35"><path class="cls-1" d="M75.8327,114.09031A42.53466,42.53466,0,0,1,17.17254,77.94578c-.65491-8.44275-.127-16.97351-.27539-25.46155-.03882-2.2179.767-2.83191,2.88525-2.82788q39.71339.0769,79.42676-.01648c2.468-.00757,3.14136.83362,3.08338,3.16528-.13172,5.30261-.04151,10.61072-.04151,16.44141,7.09461-1.95264,4.33777-7.17884,4.50025-10.94654.35607-8.25586.11023-8.2666,8.11828-8.61157a19.05881,19.05881,0,0,0,1.99243-.09326,2.41461,2.41461,0,0,0-.18335-4.82568,34.21206,34.21206,0,0,0-3.49243-.07447q-53.7008-.00439-107.40136-.001c-.99878,0-1.99866-.00537-2.9961.03662-1.50781.06372-2.72241.8302-2.78564,2.31177C-.0738,48.84763,1.287,49.61167,2.9765,49.65989a36.87612,36.87612,0,0,0,5.48938-.01245c3.067-.37513,4.03356.71618,3.934,3.8396-.228,7.1521-.19849,14.31909-.04688,21.47534.51941,24.507,17.40405,43.50805,41.58362,46.58935,3.01428.38416,3.41382,1.57251,3.3905,4.08106-.09106,9.82251-.04272,19.64636-.0293,29.46972.00245,1.82276-.11157,4.16748,2.34839,4.11548,2.4563-.05175,2.25049-2.40576,2.2511-4.23962.00305-9.15735.12586-18.31714-.05835-27.47083-.07519-3.7362.0304-6.32959,5.0282-6.1184,2.85352.1206,5.76758-1.37207,8.6665-2.08936,3.36914-.8335,4.80372-2.72839,3.448-6.43823C77.92864,113.272,76.87591,113.66965,75.8327,114.09031Z"/><path class="cls-1" d="M134.24114,69.66843a44.95914,44.95914,0,1,0,45.08863,45.05469A44.87134,44.87134,0,0,0,134.24114,69.66843Zm.09778,84.9198A39.96175,39.96175,0,1,1,174.674,114.563,39.767,39.767,0,0,1,134.33892,154.58823Z"/><path class="cls-1" d="M31.95953,34.78269c2.48791.06238,2.5863-1.31689,2.566-3.15015-.051-4.6372-.01685-9.27539-.01685-13.9132q0-6.70807.00305-13.41639C34.5158,2.4343,34.55731.144,32.24224.00657c-2.42517-.144-2.49621,2.10949-2.495,4.00024q.00915,13.91346-.00537,27.82678C29.739,33.4083,29.68987,34.72581,31.95953,34.78269Z"/><path class="cls-1" d="M87.154,34.77842c2.179-.01721,2.33349-1.24085,2.31982-2.88733-.03662-4.47193-.01245-8.94409-.01209-13.41626q.00074-7.20521-.00085-14.41016C89.45941,2.1865,89.40081-.00295,86.97308.0051,84.89337.01194,84.69671,1.99656,84.69891,3.748c.012,9.44116.03393,18.88233-.017,28.32324C84.6723,33.87266,85.10711,34.79465,87.154,34.77842Z"/><path class="cls-1" d="M152.47454,129.08518c-3.9126-3.85474-7.72656-7.81909-11.79345-11.50415-2.31128-2.09424-2.79615-3.49463-.14283-5.79907,4.01343-3.48609,7.65479-7.40051,11.4513-11.136a5.981,5.981,0,0,0,2.28137-3.6123,2.60821,2.60821,0,0,0-1.36817-2.07813c-1.52221-.68115-2.52319.32324-3.46582,1.27539-4.09838,4.13941-8.32177,8.16846-12.20556,12.50135-2.14551,2.39343-3.441,2.16186-5.47461-.07923-3.79956-4.18725-7.881-8.11963-11.87122-12.13208-1.16113-1.16748-2.45581-2.76074-4.19665-1.18945-1.87451,1.69177-.67639,3.29346.72217,4.67029,3.91357,3.85339,7.70642,7.84362,11.80468,11.49035,2.52222,2.24439,2.92261,3.73291.139,6.15308-4.13721,3.59692-7.8988,7.62659-11.81164,11.48071-1.35877,1.33838-2.78,2.88538-.97315,4.66065,1.95459,1.92041,3.28711-.0437,4.53027-1.2854,4.1211-4.11683,8.26941-8.2118,12.24305-12.46851,1.67187-1.79089,2.76379-1.71875,4.39367.01855,3.98462,4.24683,8.11231,8.36084,12.231,12.47974,1.241,1.241,2.6084,3.1969,4.52832,1.2395C155.23528,131.99729,153.83709,130.42747,152.47454,129.08518Z"/></g></g></svg>