<svg xmlns="http://www.w3.org/2000/svg" viewBox="0 0 42.58639 56.76492"><defs><style>.cls-1{fill:#252525;}</style></defs><g id="Layer_2" data-name="Layer 2"><g id="Layer_32" data-name="Layer 32"><path class="cls-1" d="M42.58593,20.12088a5.09366,5.09366,0,0,0-1.59468-3.952q-7.47592-7.37169-14.859-14.83741A4.22341,4.22341,0,0,0,22.97435.00408C17.79819.01421,12.62183-.01826,7.44589.01665A7.16347,7.16347,0,0,0,.02412,7.37092q-.0498,21.0012-.00153,42.00259a7.09461,7.09461,0,0,0,7.50169,7.39031q13.532.0034,27.064.00057c5.11638.00019,7.95943-2.82219,7.97532-7.95179.01465-4.73265.00311-9.46538.00316-14.19807C42.5668,29.78324,42.53324,24.95159,42.58593,20.12088ZM24.83705,2.90335,39.68689,17.77506c-4.12006,0-8.2983.04976-12.47409-.029a2.279,2.279,0,0,1-2.33749-2.261C24.77275,11.27487,24.83705,7.06061,24.83705,2.90335ZM40.869,49.28171c-.01362,3.65716-2.19448,5.79564-5.8208,5.80221q-13.75524.0249-27.51052-.00139c-3.64652-.008-5.84333-2.26506-5.84849-5.94992Q1.67468,38.77882,1.68643,28.425q0-10.27989.002-20.5598C1.69258,3.9288,3.881,1.70494,7.80362,1.68561c4.585-.02258,9.17067.032,13.75491-.03036,1.20464-.01638,1.62535.30316,1.6,1.56063-.07645,3.79488-.0403,7.59234-.02314,11.38868.01428,3.16276,1.7958,4.91307,4.97335,4.91768,3.84556.00559,7.69146.02851,11.53646-.018.94732-.01144,1.2612.2359,1.25739,1.23051C40.866,30.25032,40.90442,39.76615,40.869,49.28171Z"/><path class="cls-1" d="M34.01452,42.714c-5.43852-.1559-4.56978.82048-7.51714-3.95338-1.84572-2.98952-5.12679-2.72714-6.77356.4023-.58179,1.10563-1.0651,2.26313-1.61794,3.4497a2.84739,2.84739,0,0,1-.65789-1.57431c-.53565-2.1477-1.02522-4.30734-1.59226-6.44654-.24345-.91842-.65-1.898-1.77817-1.90153-1.09052-.0034-1.37067.98988-1.63092,1.84323-.54593,1.79005-1.05625,3.591-1.58193,5.38719-.75353,2.57473-.753,2.58636-3.43156,2.7624-.541.03557-1.04027.11222-1.091.72955-.05714.69574.44117.94413,1.05214.94863,4.0655.03007,3.74816.35557,4.82927-3.15159.17374-.56358.24753-1.16123.45321-1.71109.50567-1.35182.62227-2.84445,1.52527-4.38713.72879,2.86606,1.37209,5.3942,2.01437,7.92259.23732.9342.509,1.87007,1.6838,1.96138,1.1395.08856,1.45336-.83629,1.82017-1.64a40.0224,40.0224,0,0,1,1.70312-3.7584c.89753-1.52431,2.41894-1.56094,3.5013-.1561a22.57763,22.57763,0,0,1,1.57438,2.49881,4.35674,4.35674,0,0,0,4.3603,2.444c1.03046-.07365,2.07673.05664,3.10432-.03485.825-.07346,2.25014.52815,2.23153-.86894C36.17862,42.22162,34.809,42.73676,34.01452,42.714Z"/><path class="cls-1" d="M8.41058,8.84542c1.32964.02249,2.6599.00723,3.9899.00723l.00007-.0353c1.37866,0,2.75772.019,4.13575-.01007.49567-.01045,1.05182-.11319,1.07187-.76678.02226-.72536-.54828-.893-1.1131-.89724q-4.06245-.03024-8.12519.00195c-.54847.00461-1.16644.12549-1.13878.86135C7.25748,8.70841,7.84936,8.83592,8.41058,8.84542Z"/><path class="cls-1" d="M16.3389,14.26284c-1.275.01432-2.55037.00423-3.82561.00414-1.37331-.00009-2.74663.00419-4.11992-.0021-.5917-.00271-1.13453.12109-1.15975.82043-.02615.72554.55535.85941,1.1204.8625q4.0462.02208,8.09256-.00009c.54046-.00352,1.16825-.06686,1.15183-.81677C17.581,14.33692,16.98029,14.25564,16.3389,14.26284Z"/></g></g></svg>