<svg xmlns="http://www.w3.org/2000/svg" viewBox="0 0 46.83137 39.51059"><defs><style>.cls-1{fill:#de100a;}</style></defs><g id="Layer_2" data-name="Layer 2"><g id="Layer_32" data-name="Layer 32"><path class="cls-1" d="M39.69188,1.02926A11.08154,11.08154,0,0,0,27.30522,3.123a31.15788,31.15788,0,0,0-3.2674,3.83264c-.45184.54724-.71643.58985-1.15655.003-.75006-1-1.5448-1.96911-2.36133-2.9162A11.62681,11.62681,0,0,0,3.30345,3.69162C-1.50978,8.8085-.99892,17.52249,4.41563,22.57925q8.36682,7.81385,16.73676,15.62439c1.85553,1.73761,2.73663,1.748,4.61334-.00134C31.19151,33.14474,36.58714,28.05392,42.06919,23.058a13.76931,13.76931,0,0,0,4.75617-10.61517c0-.302.01489-.60486-.0022-.906C46.543,6.6116,44.25883,2.959,39.69188,1.02926Z"/></g></g></svg>