<svg xmlns="http://www.w3.org/2000/svg" viewBox="0 0 159.08001 159.5429"><defs><style>.cls-1{fill:#252525;}</style></defs><g id="Layer_2" data-name="Layer 2"><g id="Layer_35" data-name="Layer 35"><path class="cls-1" d="M158.21042,10.84332c-.76514-6.41456-3.54492-9.08887-9.92724-9.92792a95.63723,95.63723,0,0,0-28.31446.27984c-23.398,3.922-42.1936,15.50782-55.908,34.96955-1.823,2.58685-3.66382,3.69684-6.897,3.59448-8.14648-.25793-16.30688-.119-24.46118-.075-7.23242.039-12.937,2.94195-16.355,9.46558C11.4072,58.57879,6.53586,68.04748,1.8469,77.60308c-3.35572,6.83844-.10694,11.85834,7.60229,12.006,5.65625.10828,11.31616.02124,16.97437.02167,4.65966.00043,9.34643.32477,13.97436-.05817,16.217-1.34192,30.02783,12.58466,29.55615,29.28315-.2915,10.30914-.12426,20.63391-.03027,30.95044.07178,7.83508,5.375,11.03338,12.4021,7.50378,8.90552-4.473,17.70728-9.15253,26.63013-13.59,7.17236-3.56689,10.58886-9.2774,10.56543-17.19934-.02246-7.48834.20385-14.98492-.08594-22.46209-.16211-4.17768,1.01123-6.80115,4.56958-9.45014C152.1865,73.62914,162.29245,45.05547,158.21042,10.84332ZM40.33347,84.67468c-10.31348-.09034-20.62842-.07154-30.94263-.02521-3.7439.01678-4.98364-1.55524-3.29443-4.95691,4.73315-9.53021,9.42553-19.084,14.37475-28.50214a11.53,11.53,0,0,1,10.51343-6.48425C39.792,44.61858,48.6008,44.681,58.2258,44.681A152.34318,152.34318,0,0,0,43.76316,82.02984C43.27585,83.97839,42.373,84.6925,40.33347,84.67468Zm74.49463,42.95617a12.52711,12.52711,0,0,1-7.31617,11.61945q-13.55419,6.88522-27.22436,13.54c-4.15479,2.01257-5.65967,1.14093-5.70215-3.221-.09717-9.98255-.019-19.96668-.04321-29.95007-.0044-1.73835-.01587-3.31574,2.18579-3.8418A155.84833,155.84833,0,0,0,114.85544,101.128C114.85544,110.67083,114.93015,119.15191,114.8281,127.63085ZM154.53855,23.61419C154.45944,61.376,133.69748,90.01489,96.436,104.548a197.44851,197.44851,0,0,1-19.36866,6.36487c-2.10424.57934-2.81469.3543-3.43408-1.83594C70.19284,96.90942,62.35544,88.99987,50.11862,85.618c-1.51147-.41772-2.458-.78949-1.95581-2.61584,8.93628-32.51,23.59742-60.57013,57.66773-73.19977,13.6477-5.059,27.80713-6.04156,42.21435-4.06756,3.55957.48773,5.2837,2.322,5.64746,5.79821C154.14231,15.8341,154.76511,20.11889,154.53855,23.61419Z"/><path class="cls-1" d="M49.8989,106.21331C35.22214,94.18823,15.50754,99.05267,6.729,116.99566,1.9614,126.74023.98166,137.38189.02732,146.75054c-.376,9.714,3.1123,13.23444,11.51757,12.74866,2.97974-.17224,5.96363-.48828,8.91162-.95453,10.19043-1.61194,20.28809-3.46838,28.78125-10.04547C62.62693,138.13061,62.99411,116.94256,49.8989,106.21331Zm-5.71167,40.14124c-9.72974,6.27618-20.91211,7.07531-30.1167,8.168-9.18433.14447-9.803-.43494-9.2854-8.0105.74121-10.8534,2.1831-21.57739,8.11279-31.05945a22.59637,22.59637,0,0,1,34.91162-4.78784C58.64817,120.775,56.925,138.13805,44.18723,146.35455Z"/><path class="cls-1" d="M114.49655,27.51537a17.15614,17.15614,0,1,0,17.4773,17.21906A17.252,17.252,0,0,0,114.49655,27.51537Zm.05664,29.70533a12.55206,12.55206,0,1,1,12.77857-12.55225A12.58876,12.58876,0,0,1,114.55319,57.2207Z"/></g></g></svg>