<svg xmlns="http://www.w3.org/2000/svg" viewBox="0 0 41.98088 41.78119"><defs><style>.cls-1{fill:#252525;}</style></defs><g id="Layer_2" data-name="Layer 2"><g id="Layer_35" data-name="Layer 35"><path class="cls-1" d="M39.60692,18.73555c-3.52315-1.41584-7.03205-2.86718-10.56846-4.24937a2.56215,2.56215,0,0,1-1.61211-1.58206c-1.48222-3.75166-3.04808-7.47066-4.55386-11.21325A2.26151,2.26151,0,0,0,20.9871,0a2.26889,2.26889,0,0,0-1.87938,1.693c-1.50834,3.74187-3.08264,7.45788-4.5608,11.21125a2.5467,2.5467,0,0,1-1.606,1.58143c-3.58239,1.40149-7.1404,2.86422-10.70976,4.29865-1.02207.41072-2.21145.701-2.23088,2.08434-.02071,1.47435,1.237,1.7553,2.30135,2.184,3.56822,1.43713,7.12553,2.90144,10.70668,4.30592a2.38928,2.38928,0,0,1,1.50726,1.48074c1.48391,3.75121,3.05427,7.4686,4.565,11.20952.37828.93663.85049,1.7729,1.98225,1.7309,1.04237-.03865,1.47893-.843,1.83511-1.72842,1.50559-3.74274,3.07014-7.46218,4.55959-11.21113a2.40142,2.40142,0,0,1,1.5139-1.47983c3.5824-1.4014,7.13632-2.8744,10.7059-4.30836,1.07035-.43,2.33239-.72026,2.30306-2.18266C41.95131,19.419,40.67013,19.16285,39.60692,18.73555ZM39.474,21.68074c-3.74776,1.52994-7.50009,3.05024-11.27534,4.51158a2.831,2.831,0,0,0-1.82639,1.75223c-1.46163,3.76057-3.015,7.48614-4.55793,11.21511-.17551.42424-.14357,1.10261-.79649,1.13172-.68492.03053-.65618-.65891-.8298-1.07956-1.55883-3.77675-3.11624-7.5544-4.61919-11.35325a2.55315,2.55315,0,0,0-1.59329-1.59732c-3.86724-1.4997-7.71008-3.0616-11.5546-4.61842-.385-.15593-.9981-.15267-.98079-.75277.0168-.5822.62455-.57789,1.01072-.73466,3.79691-1.54111,7.59263-3.08617,11.41334-4.56743a2.69868,2.69868,0,0,0,1.72022-1.664c1.51158-3.84877,3.09285-7.6707,4.66382-11.49628.1564-.38088.16949-.93274.81381-.93044.5455.13561.54951.65665.70968,1.04637,1.57178,3.82485,3.15178,7.6467,4.67277,11.49149a2.40831,2.40831,0,0,0,1.50262,1.494c3.86461,1.50759,7.71279,3.057,11.55775,4.61353.38944.15767,1.00963.15621,1.04878.70656C40.60257,21.53574,39.88846,21.51156,39.474,21.68074Z"/></g></g></svg>