<svg xmlns="http://www.w3.org/2000/svg" viewBox="0 0 114.16777 96.66777"><defs><style>.cls-1{fill:none;stroke:#000;stroke-linejoin:round;stroke-width:2.66777px;}.cls-2{fill:#252525;}</style></defs><g id="Layer_2" data-name="Layer 2"><g id="Layer_32" data-name="Layer 32"><rect class="cls-1" x="1.33389" y="1.33389" width="111.5" height="94" rx="9.80609"/><path class="cls-2" d="M21.25852,20.4055q7.29616-.00728,14.59236-.00228,7.29617-.00008,14.59234.00366c.89129.00144,1.9599.04057,2.00059-1.10888.047-1.32846-1.10145-1.25513-2.05055-1.25494q-14.59237.00239-29.18472-.00346c-.89239-.00059-1.95421-.05264-1.99463,1.10987C19.1675,20.48481,20.30622,20.40639,21.25852,20.4055Z"/><path class="cls-2" d="M51.51382,37.58216a10.47383,10.47383,0,0,0-1.786-.11647q-6.88959-.01277-13.77922-.00465-4.0938,0-8.18766.00108c-2.39608.00426-4.79249-.00133-7.188.03993-.70091.01207-1.36821.27475-1.38931,1.13263-.02128.86531.63613,1.10057,1.33947,1.18473a10.11339,10.11339,0,0,0,1.19633.0381q14.07881.00267,28.15756-.00267a9.427,9.427,0,0,0,1.588-.103,1.07274,1.07274,0,0,0,1.009-1.06642A1.043,1.043,0,0,0,51.51382,37.58216Z"/><path class="cls-2" d="M21.40022,59.27558q14.39244.00073,28.78483-.00361c.97328-.00065,2.28828.22457,2.25033-1.24163-.03314-1.27978-1.25871-1.11284-2.184-1.113q-7.09623-.00163-14.19249-.00049-7.29617-.00015-14.59231.00346c-.97313.00153-2.28258-.23665-2.24441,1.24212C19.25567,59.45943,20.47668,59.27553,21.40022,59.27558Z"/><path class="cls-2" d="M50.63566,76.33953c-.26536-.01628-.53235-.00564-.79861-.00564q-13.97853-.0003-27.95708.003a11.11877,11.11877,0,0,0-1.5916.08025c-.64916.0943-1.14579.43386-1.10992,1.18131a1.08158,1.08158,0,0,0,1.04221,1.03813,11.08689,11.08689,0,0,0,1.5906.09134q6.98928.00964,13.97854.00286c4.92576-.00089,9.85156.009,14.77727-.01019.86527-.00336,1.91758-.01821,1.87755-1.25325C52.40985,76.3939,51.44224,76.389,50.63566,76.33953Z"/><path class="cls-2" d="M64.58649,20.40134q14.49187.0046,28.98378.00406c.94444.00029,2.12146.10232,2.10637-1.19646-.015-1.29051-1.19763-1.16756-2.13667-1.16677q-7.09605.00609-14.19208.00179-7.39586,0-14.79172.00138c-.92657.00059-2.11445-.15377-2.09911,1.19309C62.47234,20.57787,63.66569,20.401,64.58649,20.40134Z"/><path class="cls-2" d="M64.60126,39.8483c4.79347.022,9.58713.01039,14.38073.0102,4.86015-.0002,9.72037.011,14.58045-.01024.90467-.004,2.13433.12206,2.10667-1.21313-.02719-1.31337-1.2556-1.163-2.15785-1.16435Q79.03065,37.4483,64.55,37.47143c-.89965.00153-2.12552-.13913-2.09794,1.21342C62.47923,40.01766,63.70474,39.8442,64.60126,39.8483Z"/><path class="cls-2" d="M93.52547,56.915q-7.196.00549-14.39195.00168-7.296,0-14.59185.00119c-.92909.00054-2.11469-.1428-2.08461,1.20734.02978,1.33583,1.22572,1.14816,2.14393,1.14856q14.49192.00527,28.9838.00445c.94714.00035,2.12222.0947,2.092-1.21061C95.64708,56.78114,94.46221,56.91433,93.52547,56.915Z"/><path class="cls-2" d="M93.50757,76.34378c-4.85991-.02028-9.72-.0096-14.58-.00989q-2.09709-.00037-4.19424-.0002c-3.39535.0001-6.79081-.01549-10.186.01088-.90109.007-2.12652-.13556-2.0949,1.2167.03108,1.32969,1.25678,1.15875,2.15357,1.16018q14.4801.02361,28.96025-.00019c.90476-.00144,2.13447.11948,2.10278-1.217C95.638,76.19248,94.40979,76.34754,93.50757,76.34378Z"/></g></g></svg>