<svg xmlns="http://www.w3.org/2000/svg" viewBox="0 0 199.83759 139.91425"><defs><style>.cls-1{fill:#252525;}</style></defs><g id="Layer_2" data-name="Layer 2"><g id="Layer_35" data-name="Layer 35"><path class="cls-1" d="M138.84115,76.21055c-3.38257-14.05176-12.58423-22.57044-26.89063-25.50952-6.12012-1.25733-12.29272-.98053-18.38769-.62683-14.09522.818-24.82129,7.38531-30.33985,20.65808-5.26269,12.65783-4.77148,25.82806,5.50293,35.15832,7.85913,7.1369,10.04395,14.28162,9.29639,24.00543-.47241,6.14557,3.76562,9.75654,9.99609,9.9549,3.98755.12689,7.98218.02374,11.97364.02435,3.82519.00061,7.65087.05042,11.47509-.01019q10.686-.16928,10.95459-10.68481c.08765-3.48945.21729-6.99787-.04126-10.47016-.2478-3.3255.94751-5.2492,3.70386-7.29559C137.98617,102.57829,142.2784,90.48972,138.84115,76.21055Zm-16.40332,32.238c0-10.0528.05273-18.83783-.03785-27.62134-.022-2.12494,1.00513-5.52728-2.42114-5.47016-2.91333.04859-2.11572,3.25226-2.12256,5.2699-.052,15.316-.0144,30.63226-.03467,45.94843-.00976,7.21087-1.14062,8.29828-8.42407,8.30316-6.49438.00433-12.98852.01642-19.48291-.00354-6.31714-.01941-7.43774-1.161-7.44507-7.664q-.02563-22.72458-.00561-45.4491c0-.9989-.0105-1.99786-.001-2.99664.01734-1.80628-.35766-3.62976-2.51977-3.51264-1.81055.09809-2.07813,1.869-2.07959,3.44037-.0083,7.991.00415,15.98212-.019,23.97309-.00488,1.60095-.133,3.20153-.21533,5.05242C67.45223,101.12833,62.96,88.831,65.97567,76.76206c3.03052-12.12805,13.34057-21.16052,25.637-21.65729,7.43652-.30035,15.021-1.18182,22.35132.93189,11.88843,3.4281,18.9646,11.46039,20.85278,23.59918C136.60091,91.1038,132.49349,100.43412,122.43783,108.44859Z"/><path class="cls-1" d="M57.8619,112.185c0,3.87554-.06079,7.52044.01538,11.16253.0957,4.55725-1.87647,6.70416-6.61035,6.58331-7.15161-.18255-14.31153-.0288-21.46778-.05316-6.03295-.0205-7.27539-1.2456-7.28613-7.31134-.02637-14.808.09375-29.61749-.10351-44.423-.0354-2.66034,1.8247-7.564-2.05054-7.572-4.45117-.00916-2.251,5.00061-2.3562,7.7348-.30957,8.03876-.11035,16.09705-.11035,25.07831C8.356,96.037,4.33089,87.33134,5.2662,76.61088c.97167-11.13617,6.32836-19.95752,16.9104-23.93378A50.1253,50.1253,0,0,1,58.65,52.86741c2.867,1.11078,4.53736,1.00549,6.1106-1.65015-2.51245-2.29358-5.60815-3.40069-8.75781-4.46124-7.44629-2.50714-15.16651-2.15332-22.752-1.66205C19.151,46.00718,8.49642,52.7393,3.117,66.08573c-5.13111,12.73047-4.43018,25.81635,5.89941,35.1286,7.60864,6.85913,9.73975,13.71515,9.031,23.11194-.51075,6.77075,3.6604,10.44312,10.44531,10.53076q11.73083.15153,23.46533-.00067c5.35229-.06238,8.98486-2.7312,10.166-7.16693C63.92953,120.90989,62.48055,115.23338,57.8619,112.185Z"/><path class="cls-1" d="M187.494,52.59831c-11.16773-9.83631-39.78662-9.43458-49.44751-3.20185-.90454.58368-2.96826.87134-1.99146,2.50885.72852,1.22119,1.92969,2.89392,4.05664,1.5954,8.40772-5.13293,17.76856-3.46106,26.8191-3.46619a28.17141,28.17141,0,0,1,26.73144,19.626c4.19849,12.56311-.74658,27.392-11.26294,32.782,0-8.9638.05322-17.72937-.03857-26.49334-.02246-2.12842,1.0144-5.59986-2.3042-5.56262-3.26172.03656-2.01929,3.50085-2.24707,5.62744a33.00586,33.00586,0,0,0-.022,3.49383c-.00049,14.48426.03466,28.96863-.02,43.45264-.021,5.52069-1.38477,6.87738-6.697,6.91107-7.3269.04657-14.657-.10883-21.98071.05542-4.64111.10413-6.81055-1.836-6.68457-6.50183.103-3.815.021-7.635.021-11.91773-5.99976,3.796-4.69483,9.10663-4.50684,13.92273.2207,5.66431,3.9148,9.2663,9.6272,9.39759q12.483.28683,24.97681-.00086c5.94091-.13232,9.561-3.837,9.83154-9.76428a106.90521,106.90521,0,0,0-.01319-11.4823c-.19311-3.1123.75342-5.02045,3.42579-6.94446C204.04525,93.47556,204.40365,67.492,187.494,52.59831Z"/><path class="cls-1" d="M99.91561,39.96464c10.58887.15515,20.06421-9.30664,20.04126-20.01282C119.93392,9.23081,110.42733-.2015,99.85116.00327,89.31844.20719,80.32552,9.43339,80.34383,20.01633,80.36239,30.59818,89.40072,39.81059,99.91561,39.96464Zm.4956-34.96277A14.98534,14.98534,0,1,1,85.016,19.83341,14.9609,14.9609,0,0,1,100.41121,5.00187Z"/><path class="cls-1" d="M39.929,34.967c9.0227.20141,17.23437-7.755,17.52734-16.98267A17.83322,17.83322,0,0,0,40.42757.00718C31.38363-.18246,23.212,7.74009,22.91244,16.98832A17.794,17.794,0,0,0,39.929,34.967Zm.09033-29.96533A12.48821,12.48821,0,1,1,40.0682,29.971a12.39784,12.39784,0,0,1-12.54908-12.7099A12.38864,12.38864,0,0,1,40.01937,5.00163Z"/><path class="cls-1" d="M160.29232,34.96568c9.34741-.14844,17.35034-8.54175,17.0874-17.92084-.259-9.23248-8.42627-17.197-17.4729-17.03894a17.80189,17.80189,0,0,0-17.07446,17.922C143.09749,27.17967,151.22371,35.1096,160.29232,34.96568ZM160.285,5.002a12.37354,12.37354,0,0,1,12.4458,12.80371,12.65271,12.65271,0,0,1-25.29565-.38928A12.41211,12.41211,0,0,1,160.285,5.002Z"/></g></g></svg>