<svg xmlns="http://www.w3.org/2000/svg" viewBox="0 0 44.77729 39.18693"><defs><style>.cls-1{fill:#252525;}</style></defs><g id="Layer_2" data-name="Layer 2"><g id="Layer_33" data-name="Layer 33"><path class="cls-1" d="M44.56528,15.98963a4.46931,4.46931,0,0,0-4.47458-3.3847c-3.30777-.01394-6.61564.00085-9.92343-.00946a2.36031,2.36031,0,0,1-1.3275-.16376,23.59895,23.59895,0,0,0,2.513-6.72063A4.53791,4.53791,0,0,0,30.815,2.34293,4.71723,4.71723,0,0,0,26.41468,0a3.6755,3.6755,0,0,0-3.63684,2.58036c-.31648.793-.65418,1.5819-.90291,2.39688a13.8026,13.8026,0,0,1-5.54986,7.68888c-.57924.39156-1.12907.82685-1.69008,1.24519-.37462.27937-.854.5526-.48593,1.11545.3981.60874.79864.18692,1.16933-.0814.69258-.50132,1.3718-1.02134,2.06989-1.5148a15.19287,15.19287,0,0,0,5.7682-7.98609c.286-.88478.57953-1.77078.93932-2.62695a2.2774,2.2774,0,0,1,1.85772-1.42423,3.43627,3.43627,0,0,1,4.07992,4.304,21.79259,21.79259,0,0,1-2.68021,6.67393c-.68979,1.20548-.4729,1.58119.93369,1.583,3.89157.00486,7.78317.01056,11.67469-.00518a3.31642,3.31642,0,0,1,2.26955.741,3.19715,3.19715,0,0,1,1.157,3.23723,3.25334,3.25334,0,0,1-2.69254,2.59214c-.914.21573-1.21222.54059-.58946,1.4286a3.26454,3.26454,0,0,1-1.59509,5.05083c-.96585.329-1.07736.71959-.69232,1.621a3.02487,3.02487,0,0,1-1.47285,4.14413,1.44089,1.44089,0,0,0-.95829,1.58577,3.20408,3.20408,0,0,1-3.38683,3.45511c-1.63438.00945-3.26915-.01772-4.90328.00645a12.49379,12.49379,0,0,1-7.22915-2.25337c-1.45518-.96716-2.893-1.96046-4.3516-2.92245-.39762-.26226-.88153-.73515-1.28908-.08838-.36153.57377.10249.90909.55116,1.20284q2.34158,1.53292,4.6707,3.08471a14.17769,14.17769,0,0,0,5.73313,2.15463,44.99542,44.99542,0,0,0,6.52456.15666,4.62522,4.62522,0,0,0,5.02224-4.30112,1.62523,1.62523,0,0,1,.7186-1.22012,4.40264,4.40264,0,0,0,1.87378-4.581.99648.99648,0,0,1,.50882-1.21724,4.42556,4.42556,0,0,0,2.02995-5.22817c-.22259-.79149.01584-1.05908.64327-1.42755A4.25271,4.25271,0,0,0,44.56528,15.98963Z"/><path class="cls-1" d="M11.1526,17.10883c-.00836-2.13911-1.04906-3.13288-3.16361-3.13575q-2.45213-.00332-4.90422-.00018C1.00235,13.9745.0141,14.946.00805,17.02826-.001,20.14236.00568,23.25651.00588,26.37064c.00023,3.192-.01732,6.3841.00714,9.57588a2.61574,2.61574,0,0,0,2.84556,2.8339c1.82913.02014,3.65891.02407,5.488-.00114a2.57921,2.57921,0,0,0,2.801-2.75256c.03379-.73811.01247-1.47885.01253-2.2184C11.16051,28.24181,11.17432,22.67525,11.1526,17.10883ZM9.825,36.03633c-.06451,1.40139-.43916,1.76207-1.85685,1.76814q-2.39016.0102-4.78039-.00013c-1.41312-.00638-1.85-.44108-1.85537-1.89627-.0115-3.14838-.00354-6.29684-.00362-9.44527-.00012-3.07068-.00779-6.1414.00325-9.212.00519-1.44938.43988-1.88554,1.86436-1.89974,1.36014-.01356,2.72053-.004,4.08081-.00382,2.37313.00027,2.55115.18279,2.55121,2.61493q.00016,8.629-.00006,17.258C9.8283,35.49225,9.83746,35.7648,9.825,36.03633Z"/></g></g></svg>