<svg xmlns="http://www.w3.org/2000/svg" viewBox="0 0 191.39323 167.67248"><defs><style>.cls-1{fill:#252525;}</style></defs><g id="Layer_2" data-name="Layer 2"><g id="Layer_32" data-name="Layer 32"><path class="cls-1" d="M188.45794,142.78879c-3.7622-6.65515-7.764-13.17432-11.62341-19.7749Q143.86695,66.63041,110.89,10.25223C102.87225-3.40231,88.465-3.41391,80.47027,10.19656Q41.57245,76.41775,2.84906,142.74142c-7.25537,12.43091.00683,24.91578,14.31274,24.92347q39.447.02142,78.8938.004,38.94764,0,77.895-.001C188.80792,167.66574,195.78949,155.75778,188.45794,142.78879Zm-14.38623,19.31714c-26.11889-.593-52.26-.209-78.39233-.209q-39.44824,0-78.89649-.012c-9.69335-.0127-13.96057-7.15881-9.149-15.3833Q46.91,79.36515,86.27337,12.27957c5.145-8.76739,13.98267-8.7077,19.14112.08936,26.06689,44.45428,51.95459,89.01458,78.27185,133.32C188.84271,154.36984,183.17767,162.31271,174.07171,162.10593Z"/><path class="cls-1" d="M95.5971,107.331c3.47779.11744,2.98706-2.9458,3.004-5.16638.06885-8.99035.02857-17.98156.02857-26.97253,0-9.32385.01623-18.64777-.01209-27.97162-.00659-2.17749.03052-4.92426-2.88281-4.88361-2.906.04053-2.819,2.88282-2.82471,4.99323q-.0747,27.472.02075,54.944C92.93939,104.29514,92.53192,107.22739,95.5971,107.331Z"/><path class="cls-1" d="M95.69024,126.20432c-3.58386-.00806-5.34948,2.10376-5.676,5.53564.1842,3.77661,2.21033,5.9856,5.88916,5.92993,3.37366-.051,5.5614-2.06067,5.61023-5.6272C101.56561,128.23129,99.446,126.21274,95.69024,126.20432Z"/></g></g></svg>