<svg xmlns="http://www.w3.org/2000/svg" viewBox="0 0 104.68057 67.11583"><defs><style>.cls-1{fill:#252525;}.cls-2,.cls-3{fill:none;stroke:#252525;stroke-miterlimit:10;}.cls-2{stroke-width:1.71028px;}.cls-3{stroke-width:1.42524px;}</style></defs><g id="Layer_2" data-name="Layer 2"><g id="Layer_34" data-name="Layer 34"><path class="cls-1" d="M38.70828,40.17266c-4.71858-.43628-9.43617-.127-14.15221-.25555a25.44569,25.44569,0,0,0-6.08247.49279C7.71046,42.74084.74122,50.885.0163,61.88292c-.21166,3.211,1.64988,5.22151,4.87571,5.22491q12.24437.01293,24.48875.00377,12.33183.00135,24.66366-.00492a4.38073,4.38073,0,0,0,4.67257-4.725,29.56629,29.56629,0,0,0-.3174-3.126C57.24594,49.49268,48.499,41.07788,38.70828,40.17266ZM53.5415,65.12308q-12.06276.02409-24.12565.00659-11.888.00015-23.776-.00255c-2.9139-.00282-3.86317-1.06379-3.60711-3.97649A20.65972,20.65972,0,0,1,22.77418,41.98836c4.487-.02853,8.97483-.05077,13.46129.00453a20.65659,20.65659,0,0,1,20.534,20.11968C56.82786,63.982,55.65061,65.11887,53.5415,65.12308Z"/><path class="cls-1" d="M29.31879,33.50582a16.38139,16.38139,0,0,0,16.71764-16.7176A16.50842,16.50842,0,0,0,29.34544.00007,16.55238,16.55238,0,0,0,12.67521,16.84844,16.44652,16.44652,0,0,0,29.31879,33.50582ZM29.483,1.989A14.72138,14.72138,0,0,1,44.06226,16.9422,14.71208,14.71208,0,0,1,14.639,16.71278,14.81382,14.81382,0,0,1,29.483,1.989Z"/><path class="cls-2" d="M77.774,41.79428q-9.51063,0-19.02126-.00033c-4.35658-.00089-6.96791-2.47783-7.00464-6.8228q-.08469-10.0179-.00157-20.037c.03231-4.29187,2.60367-6.83169,6.88091-6.8393q19.14885-.03411,38.29781-.00122c4.37721.00674,6.89142,2.55731,6.89533,6.90632q.00894,9.95478-.00034,19.90957c-.00481,4.37954-2.51964,6.883-6.89732,6.88426Q87.34851,41.79664,77.774,41.79428Z"/><path class="cls-3" d="M77.84173,17.38449a7.52062,7.52062,0,0,1,7.56846,7.61064,7.62167,7.62167,0,1,1-7.56846-7.61064Z"/><path class="cls-1" d="M63.97582,13.49a6.88334,6.88334,0,0,1-6.91531,6.85718c-.611.01729-1.32828.04765-1.33339-.76726-.00472-.754.69036-.69218,1.25-.71432,3.39059-.13415,5.37551-2.11472,5.5571-5.533.03131-.58934-.05444-1.2798.8032-1.32092C63.77869,11.99053,64.00767,12.58853,63.97582,13.49Z"/><path class="cls-1" d="M63.99271,36.66963c-.00362.42116.06947,1.17457-.73327,1.19937-.73215.02263-.70132-.6852-.7283-1.24691-.1648-3.43072-2.04-5.341-5.50316-5.60489-.58309-.04444-1.374.08493-1.30419-.77479.06335-.78032.84443-.69123,1.42841-.67878A6.93533,6.93533,0,0,1,63.99271,36.66963Z"/><path class="cls-1" d="M91.62329,36.4159a6.93559,6.93559,0,0,1,6.93323-6.85251c.58138-.00008,1.34374-.08274,1.34.76126-.00342.77359-.725.652-1.26512.68773-3.41732.2261-5.421,2.2314-5.5549,5.56457-.02216.55166.06166,1.29466-.65935,1.29314C91.538,37.86824,91.62606,37.05308,91.62329,36.4159Z"/><path class="cls-1" d="M98.70382,20.35074a6.95465,6.95465,0,0,1-7.07646-6.81708c-.01766-.63032-.11529-1.47608.74539-1.498.80679-.02055.67839.79051.70371,1.37634A5.35054,5.35054,0,0,0,98.6,18.86467c.60707.01935,1.36054-.04157,1.30649.78927C99.85508,20.44475,99.09441,20.35639,98.70382,20.35074Z"/></g></g></svg>