<svg xmlns="http://www.w3.org/2000/svg" viewBox="0 0 58.71737 67.11583"><defs><style>.cls-1{fill:#252525;}</style></defs><g id="Layer_2" data-name="Layer 2"><g id="Layer_32" data-name="Layer 32"><path class="cls-1" d="M38.70828,40.17266c-4.71858-.43628-9.43617-.127-14.15221-.25555a25.44569,25.44569,0,0,0-6.08247.49279C7.71046,42.74084.74122,50.885.0163,61.88292c-.21166,3.211,1.64988,5.22151,4.87571,5.22491q12.24437.01293,24.48875.00377,12.33183.00135,24.66366-.00492a4.38073,4.38073,0,0,0,4.67257-4.725,29.56629,29.56629,0,0,0-.3174-3.126C57.24594,49.49268,48.499,41.07788,38.70828,40.17266ZM53.5415,65.12308q-12.06276.02409-24.12565.00659-11.888.00015-23.776-.00255c-2.9139-.00282-3.86317-1.06379-3.60711-3.97649A20.65972,20.65972,0,0,1,22.77418,41.98836c4.487-.02853,8.97483-.05077,13.46129.00453a20.65659,20.65659,0,0,1,20.534,20.11968C56.82786,63.982,55.65061,65.11887,53.5415,65.12308Z"/><path class="cls-1" d="M29.31879,33.50582a16.38139,16.38139,0,0,0,16.71764-16.7176A16.50842,16.50842,0,0,0,29.34544.00007,16.55238,16.55238,0,0,0,12.67521,16.84844,16.44652,16.44652,0,0,0,29.31879,33.50582ZM29.483,1.989A14.72138,14.72138,0,0,1,44.06226,16.9422,14.71208,14.71208,0,0,1,14.639,16.71278,14.81382,14.81382,0,0,1,29.483,1.989Z"/></g></g></svg>