<svg xmlns="http://www.w3.org/2000/svg" viewBox="0 0 159.5815 139.88476"><defs><style>.cls-1{fill:#252525;}</style></defs><g id="Layer_2" data-name="Layer 2"><g id="Layer_35" data-name="Layer 35"><path class="cls-1" d="M159.5416,49.45384c-.03772-15.35352-9.23547-24.45032-24.67053-24.4602q-54.44677-.0348-108.89344-.00391a31.97568,31.97568,0,0,0-3.4906.10181,2.40123,2.40123,0,0,0,.15247,4.8,39.44626,39.44626,0,0,0,3.99084.08863q54.44679.00549,108.89332.00757c12.5935.00463,19.34655,6.776,19.36718,19.48169q.0531,32.95861,0,65.9176c-.02051,12.70837-6.77148,19.48108-19.363,19.48572q-55.69537.02013-111.39087.00073c-12.68994-.00391-19.438-6.67041-19.4552-19.35889Q4.62,70.07116,4.6782,24.62742c.01342-13.012,6.68066-19.61425,19.70141-19.61682q59.192-.01172,118.384-.00732a33.25576,33.25576,0,0,0,4.48486-.14,2.35265,2.35265,0,0,0,2.13306-2.40039A2.408,2.408,0,0,0,147.15073.13365a32.3574,32.3574,0,0,0-3.98779-.11877Q113.442.00609,83.72117.011c-19.814,0-39.62793-.03027-59.44178.00976C9.26328.05125.04148,9.29759.02414,24.36644q-.05237,45.44348-.00293,90.8872c.01294,15.41333,9.15235,24.6023,24.49219,24.61268q55.196.03717,110.392.00036c15.40613-.01,24.60095-9.13428,24.63684-24.49463Q159.61947,82.41307,159.5416,49.45384Z"/><path class="cls-1" d="M137.02317,82.3126a12.27863,12.27863,0,1,0-12.16577,12.6A12.52461,12.52461,0,0,0,137.02317,82.3126Zm-19.93409.23829a7.63852,7.63852,0,1,1,7.76014,7.36169A7.48152,7.48152,0,0,1,117.08908,82.55089Z"/></g></g></svg>