<svg xmlns="http://www.w3.org/2000/svg" viewBox="0 0 37.70129 37.66827"><defs><style>.cls-1{fill:#252525;}</style></defs><g id="Layer_2" data-name="Layer 2"><g id="Layer_32" data-name="Layer 32"><path class="cls-1" d="M37.6694,10.8797a3.08881,3.08881,0,0,0-1.254-2.5322,3.35677,3.35677,0,0,0-3.55356-.49258,3.42792,3.42792,0,0,0-2.03913,3.28289c-.048,1.28825-.01,2.57968-.01,4.12265-.3533-.2707-.5224-.37751-.66465-.51257Q24.33813,9.231,18.536,3.706c-2.173-2.07695-5.1304-1.37131-6.01208,1.50539-.198.646-.42249.49974-.859.34983a3.54689,3.54689,0,0,0-3.89018.69855,3.234,3.234,0,0,0-.7089,3.76645c.1988.5014.12.71522-.37526.78787A3.38066,3.38066,0,0,0,5.23309,16.8019c.49379.412.51922.59692-.212.8289A3.38375,3.38375,0,0,0,3.5928,23.44937Q8.86005,28.5511,14.13748,33.6423a13.177,13.177,0,0,0,11.35046,3.89812c3.735-.48892,6.46621-2.62471,8.88629-5.28408a11.93708,11.93708,0,0,0,3.26651-7.85782C37.75491,19.89488,37.67332,15.38621,37.6694,10.8797ZM36.28753,25.68975a11.4748,11.4748,0,0,1-3.50591,6.40251c-.59931.58512-1.20575,1.16649-1.846,1.70553a11.43415,11.43415,0,0,1-15.28042-.42725c-3.67071-3.48683-7.27653-7.04206-10.90129-10.577-1.1273-1.09938-1.27241-2.55168-.38442-3.43365,1.02334-1.01643,2.38844-.90993,3.6063.27494Q11.0544,22.63,14.13763,25.62052a1.26567,1.26567,0,0,0,.15352.14215c.45465.31323.90666,1.07372,1.48028.44893.52851-.57567-.08477-1.03553-.52725-1.45716q-4.6257-4.40758-9.22584-8.842A2.18683,2.18683,0,0,1,5.72515,12.663a2.335,2.335,0,0,1,3.53024.06731c2.20611,2.0882,4.38218,4.20811,6.57131,6.31425.93121.89592,1.8699,1.78418,2.79292,2.68845.38664.37879.81075.66216,1.25757.18963.462-.48861-.02543-.83054-.33513-1.13014q-5.19447-5.025-10.4077-10.03057c-.69787-.67007-1.3617-1.36308-1.14212-2.42747a2.26435,2.26435,0,0,1,3.7602-1.27508c1.33316,1.12181,2.54953,2.38277,3.812,3.588q3.67464,3.50817,7.34746,7.01826c.37384.35517.775,1.037,1.34919.357.53519-.63382-.14565-.98391-.52518-1.35022Q19.17673,12.272,14.60744,7.882a2.518,2.518,0,0,1-.95252-2.31268,2.03472,2.03472,0,0,1,1.41227-1.67463,2.43044,2.43044,0,0,1,2.60819.59264c1.345,1.27115,2.67589,2.55719,4.01567,3.83387q4.47381,4.26314,8.9505,8.52326c.298.28378.56555.69682,1.05809.45649.4392-.21432.29761-.66494.29964-1.03277.009-1.6419-.00974-3.284.00822-4.92578.01815-1.66039.82262-2.55336,2.25663-2.5533,1.43216.00007,2.23221.90422,2.239,2.55931.00862,2.09608.00209,4.19222.00209,6.76843C36.36443,20.31894,36.73835,23.01321,36.28753,25.68975Z"/><path class="cls-1" d="M23.4977,1.20912c3.57074.68567,4.83021,1.94375,5.40882,5.36358.06679.39474.05427.91488.67253.85846.59713-.05447.54467-.525.52382-.95108A6.98161,6.98161,0,0,0,23.59023.00116c-.40532-.01116-.81537.05019-.85776.55045C22.68868,1.06844,23.0997,1.1327,23.4977,1.20912Z"/><path class="cls-1" d="M6.45056,34c-3.20975-.47254-4.79229-2.08132-5.25393-5.38183-.05777-.413-.11681-.8121-.631-.76854-.48036.04069-.56568.42949-.56562.84976a6.99925,6.99925,0,0,0,6.36047,6.50745c.78491.01808,1.08431-.11013,1.07306-.505C7.41528,34.06171,6.88933,34.06457,6.45056,34Z"/></g></g></svg>