<svg xmlns="http://www.w3.org/2000/svg" viewBox="0 0 159.62442 139.8753"><defs><style>.cls-1{fill:#231f20;}</style></defs><g id="Layer_2" data-name="Layer 2"><g id="Layer_32" data-name="Layer 32"><path class="cls-1" d="M159.58838,21.95966C159.5669,8.23187,151.19946.02216,137.34033.01483Q79.87781-.01556,22.4148.0141C8.25806.02094.0293,8.19916.01856,22.28583q-.03589,47.69055.001,95.38061c.01172,14.03809,8.27735,22.18091,22.47193,22.19629q28.48133.03077,56.96289.00513,28.9812,0,57.96264-.00708c13.80005-.01978,22.15332-8.27148,22.17261-22.02124Q159.65736,69.8996,159.58838,21.95966ZM4.80029,19.143A15.16228,15.16228,0,0,1,9.4917,8.83783C12.17945,6.377,15.1958,5.83905,19.91455,5.06622A49.90672,49.90672,0,0,1,35.0044,4.93988v30l-15.11621-.00256A113.69931,113.69931,0,0,0,7.91528,35.004a3.406,3.406,0,0,1-2.71044-.62012,2.90268,2.90268,0,0,1-.58472-2.2854C4.82837,27.78656,4.48487,23.44232,4.80029,19.143Zm150.13965,98.17993c-.01318,11.81079-5.7207,17.54321-17.39062,17.54565q-57.72474.01135-115.44995-.00024c-11.7107-.0022-17.40918-5.68946-17.42359-17.4773-.02954-24.3081.08936-48.6167-.10937-72.92334-.03174-3.86157,1.11133-4.6084,4.73-4.583,23.48852.16455,46.979.08422,70.46875.08422,23.32324,0,46.64722.09449,69.969-.09179,3.94385-.0315,5.37378.63208,5.32984,5.02221C154.82178,69.03851,154.96753,93.18134,154.93994,117.32294ZM140.90528,34.97247q-21.97487-.00018-43.94971-.00012c-17.64649,0-35.2937-.09106-52.93848.079-3.41553.03284-4.5957-.74841-4.45166-4.34045.29248-7.30884.25464-14.64307.01026-21.95545-.10645-3.184.97216-3.82483,3.95166-3.81506,31.96313.10339,63.92675.02881,95.89013.08838,8.76612.01648,14.72339,5.69372,15.47339,14.38183C156.23413,34.97247,156.23413,34.97247,140.90528,34.97247Z"/></g></g></svg>