<svg xmlns="http://www.w3.org/2000/svg" viewBox="0 0 96.19433 76.87892"><g id="Layer_2" data-name="Layer 2"><g id="Layer_10" data-name="Layer 10"><path d="M75.775,12.26912C74.0975,12.3,74.70293,13.996,74.701,15.00424q-.05124,26.85464-.028,53.7095c-.00182,4.324-1.59231,5.89086-5.94156,5.89217q-20.44569.00623-40.89138.00085c-4.85347-.00068-6.25768-1.43335-6.25789-6.37483q-.00089-26.454-.03332-52.90785c-.00292-1.09837.72543-3.048-1.1825-3.0019-1.57658.0381-1.06163,1.88057-1.06412,2.97979q-.04978,21.84438-.02211,43.689c0,3.27337-.05268,6.54775.013,9.81981.10853,5.401,2.87514,8.06646,8.27012,8.06709q20.64615.00247,41.29227.00038c5.21072-.00017,8.06143-2.828,8.06545-8.02363q.01033-13.42742.0019-26.85479c0-9.01837.017-18.03687-.0238-27.05507C76.89459,13.93868,77.48794,12.23754,75.775,12.26912Z"/><path d="M96.19281,12.24C96.19019,4.29318,91.89422.00685,83.931.00643Q66.08908.00547,48.24717.00634C35.95162.00643,23.656-.01226,11.36049.01412,4.97589.02778.29036,4.38083.06692,10.59589c-.13673,3.80329-.02,7.61555-.02934,11.42371-.00229.93766.131,1.92213,1.27369,1.8604,1.0287-.05555,1.011-1.03918,1.008-1.873q-.01865-5.1109-.00389-10.222c.01163-6.02658,3.391-9.49393,9.41233-9.49985q36.38544-.0359,72.771.00059C90.577,2.2922,93.86024,5.65761,93.9,11.771c.02173,3.34038-.01395,6.68123.01852,10.02144.00871.89374-.15288,2.13421,1.20943,2.08973,1.17916-.03848,1.06006-1.15972,1.06192-2.02145Q96.20026,17.0504,96.19281,12.24Z"/><path d="M59.02811,31.42664c-5.15559-4.15633-13.65887-4.88467-19.4106-1.6214-4.30252,2.44106-7.06246,6.04353-7.04986,11.08552.01252,5.02549,2.72062,8.67464,7.05823,11.06412A18.17742,18.17742,0,0,0,48.05814,54.08a18.63676,18.63676,0,0,0,9.17763-2.50229C65.02251,47.00536,65.90539,36.97094,59.02811,31.42664ZM56.96033,48.97188a14.13914,14.13914,0,0,1-8.81577,2.76505,14.65926,14.65926,0,0,1-8.32483-2.383c-6.69125-4.50821-6.58589-12.88407.25215-17.16173a15.77276,15.77276,0,0,1,16.852.57892C62.88979,37.09118,62.91533,44.62184,56.96033,48.97188Z"/><path d="M25.51631,58.96263c-.0282,1.49883,1.54547,1.083,2.52372,1.14251a8.24341,8.24341,0,0,1,8.07965,7.881c.05788.6639.06473,1.33508.16844,1.9913a.90861.90861,0,0,0,1.00375.78634,1.00469,1.00469,0,0,0,1.04653-.7704,7.35593,7.35593,0,0,0,.09268-1.28c-.10765-6.05495-4.55257-10.69495-10.2092-10.86719C27.20849,57.81535,25.54819,57.26809,25.51631,58.96263Z"/><path d="M58.89083,70.729c1.30084.11035,1.16508-1.04154,1.176-1.86286.06883-5.19664,3.75793-8.96433,9.025-8.7863.79514.02689,1.74379-.03788,1.71335-1.16445-.02976-1.10111-.91682-1.08183-1.75546-1.10563-6.23312-.177-10.958,4.31191-11.2576,10.82884C57.92294,69.38669,57.54771,70.615,58.89083,70.729Z"/></g></g></svg>